<svg width="16" height="18" viewBox="0 0 16 18" fill="none" xmlns="http://www.w3.org/2000/svg">
<path d="M3 18C2.45 18 1.97933 17.8043 1.588 17.413C1.196 17.021 1 16.55 1 16V3C0.716667 3 0.479 2.90433 0.287 2.713C0.0956668 2.521 0 2.28333 0 2C0 1.71667 0.0956668 1.479 0.287 1.287C0.479 1.09567 0.716667 1 1 1H5C5 0.716667 5.096 0.479 5.288 0.287C5.47933 0.0956666 5.71667 0 6 0H10C10.2833 0 10.521 0.0956666 10.713 0.287C10.9043 0.479 11 0.716667 11 1H15C15.2833 1 15.5207 1.09567 15.712 1.287C15.904 1.479 16 1.71667 16 2C16 2.28333 15.904 2.521 15.712 2.713C15.5207 2.90433 15.2833 3 15 3V16C15 16.55 14.8043 17.021 14.413 17.413C14.021 17.8043 13.55 18 13 18H3ZM5 13C5 13.2833 5.096 13.5207 5.288 13.712C5.47933 13.904 5.71667 14 6 14C6.28333 14 6.521 13.904 6.713 13.712C6.90433 13.5207 7 13.2833 7 13V6C7 5.71667 6.90433 5.479 6.713 5.287C6.521 5.09567 6.28333 5 6 5C5.71667 5 5.47933 5.09567 5.288 5.287C5.096 5.479 5 5.71667 5 6V13ZM9 13C9 13.2833 9.096 13.5207 9.288 13.712C9.47933 13.904 9.71667 14 10 14C10.2833 14 10.521 13.904 10.713 13.712C10.9043 13.5207 11 13.2833 11 13V6C11 5.71667 10.9043 5.479 10.713 5.287C10.521 5.09567 10.2833 5 10 5C9.71667 5 9.47933 5.09567 9.288 5.287C9.096 5.479 9 5.71667 9 6V13Z" fill="#808080"/>
</svg>
