<svg width="515" height="325" viewBox="0 0 515 325" fill="none" xmlns="http://www.w3.org/2000/svg">
<path d="M0 16C0 7.16344 7.16344 0 16 0H499C507.837 0 515 7.16344 515 16V309C515 317.837 507.837 325 499 325H16C7.16345 325 0 317.837 0 309V16Z" fill="#CCFFF5"/>
<g clip-path="url(#clip0_1500_3945)">
<path d="M360.336 66.0765C348.961 66.0765 337.445 64.3769 326.006 61.0031C314.897 57.7262 303.835 52.8717 293.127 46.5742C276.266 36.6573 265.566 26.2046 263.968 24.6014C257.928 34.1458 248.756 41.6766 236.7 46.9864C226.985 51.2657 215.385 54.1203 202.223 55.4708C179.825 57.7696 160.398 54.8695 160.204 54.8399C160.143 54.8306 160.089 54.7976 160.052 54.7483C160.016 54.6989 160.001 54.6371 160.01 54.5766C160.019 54.516 160.052 54.4616 160.102 54.4253C160.151 54.3891 160.213 54.3739 160.274 54.3832C160.467 54.4129 179.845 57.3042 202.186 55.0103C222.776 52.8961 250.167 45.8189 263.73 24.1087C263.749 24.0789 263.774 24.0537 263.804 24.035C263.834 24.0164 263.868 24.0048 263.903 24.0011C263.938 23.9975 263.973 24.0019 264.007 24.0139C264.04 24.026 264.07 24.0455 264.094 24.0708C264.203 24.1838 275.196 35.4937 293.375 46.1836C310.145 56.0446 336.635 67.3805 367.6 65.3809C367.661 65.377 367.722 65.3976 367.768 65.438C367.814 65.4784 367.842 65.5354 367.846 65.5965C367.85 65.6577 367.829 65.7178 367.789 65.7639C367.748 65.8099 367.691 65.838 367.63 65.842C365.207 65.9984 362.775 66.0766 360.336 66.0765Z" fill="#00A483"/>
<path d="M186.079 66.7359C185.961 66.7294 185.848 66.6862 185.756 66.6125C185.663 66.5387 185.596 66.438 185.564 66.3244L182.586 56.3526C182.561 56.2683 182.555 56.1794 182.57 56.0927C182.584 56.006 182.619 55.9237 182.67 55.8522C182.721 55.7806 182.788 55.7217 182.866 55.6799C182.943 55.638 183.029 55.6144 183.117 55.6108L189.184 55.3619C189.276 55.3582 189.368 55.3765 189.452 55.4153C189.536 55.4541 189.609 55.5123 189.666 55.5851C189.722 55.6578 189.761 55.743 189.777 55.8336C189.794 55.9241 189.789 56.0173 189.763 56.1055L186.674 66.3262C186.64 66.4461 186.567 66.5513 186.466 66.6256C186.366 66.6999 186.243 66.7391 186.118 66.7371C186.105 66.7371 186.092 66.7367 186.079 66.7359Z" fill="#9AD8FE"/>
<path d="M215.282 64.5463C215.164 64.5588 215.045 64.5344 214.942 64.4764C214.839 64.4184 214.757 64.3298 214.707 64.2229L210.157 54.8592C210.119 54.78 210.099 54.6932 210.099 54.6053C210.099 54.5174 210.12 54.4307 210.159 54.3519C210.198 54.273 210.255 54.2041 210.324 54.1504C210.394 54.0966 210.475 54.0595 210.562 54.0418L216.509 52.8224C216.6 52.8038 216.693 52.8071 216.782 52.832C216.871 52.8569 216.953 52.9026 217.02 52.9653C217.088 53.028 217.139 53.106 217.171 53.1926C217.202 53.2792 217.212 53.3721 217.2 53.4634L215.803 64.0465C215.788 64.1703 215.733 64.2859 215.646 64.3753C215.559 64.4648 215.444 64.5231 215.321 64.5412C215.308 64.5433 215.295 64.545 215.282 64.5463Z" fill="#9AD8FE"/>
<path d="M247.46 53.5805C247.351 53.6263 247.231 53.637 247.115 53.611C247 53.585 246.895 53.5237 246.817 53.4357L239.757 45.7728C239.697 45.7081 239.653 45.6306 239.628 45.5463C239.603 45.462 239.597 45.3731 239.612 45.2864C239.627 45.1997 239.661 45.1175 239.712 45.046C239.764 44.9745 239.831 44.9157 239.908 44.8739L245.252 42.0003C245.334 41.9566 245.424 41.9329 245.516 41.9313C245.609 41.9296 245.7 41.9499 245.783 41.9906C245.866 42.0313 245.938 42.0911 245.993 42.1651C246.048 42.2391 246.084 42.3252 246.099 42.416L247.815 52.9525C247.837 53.0753 247.817 53.2018 247.76 53.3124C247.702 53.4231 247.609 53.5117 247.496 53.5645C247.484 53.5702 247.472 53.5756 247.46 53.5805Z" fill="#9AD8FE"/>
<path d="M350.169 76.1942C350.052 76.1746 349.944 76.1191 349.861 76.0355C349.777 75.9519 349.722 75.8443 349.703 75.7279L347.863 65.4864C347.848 65.3999 347.852 65.311 347.876 65.2264C347.9 65.1419 347.944 65.0639 348.002 64.9985C348.061 64.9332 348.135 64.8821 348.216 64.8491C348.298 64.8162 348.386 64.8023 348.474 64.8086L354.531 65.2381C354.623 65.2447 354.712 65.2731 354.791 65.321C354.87 65.3689 354.936 65.4349 354.984 65.5135C355.032 65.5922 355.061 65.6811 355.068 65.773C355.074 65.8648 355.059 65.9569 355.022 66.0415L350.806 75.8535C350.758 75.9687 350.674 76.0652 350.565 76.1278C350.457 76.1904 350.331 76.2157 350.207 76.1998C350.194 76.1983 350.181 76.1965 350.169 76.1942Z" fill="#9AD8FE"/>
<path d="M317.843 69.4863C317.733 69.4414 317.641 69.3635 317.578 69.2635C317.515 69.1635 317.485 69.0464 317.492 68.9287L317.978 58.5355C317.982 58.4477 318.006 58.362 318.048 58.2849C318.091 58.2078 318.15 58.1413 318.222 58.0906C318.294 58.0399 318.377 58.0063 318.464 57.9922C318.551 57.9782 318.64 57.9842 318.725 58.0098L324.535 59.7682C324.623 59.795 324.704 59.8424 324.77 59.9066C324.836 59.9708 324.886 60.0498 324.915 60.1371C324.945 60.2244 324.953 60.3174 324.939 60.4084C324.925 60.4995 324.889 60.5858 324.835 60.6603L318.539 69.295C318.467 69.3969 318.364 69.4722 318.244 69.5093C318.125 69.5465 317.997 69.5433 317.879 69.5004C317.867 69.496 317.854 69.4914 317.843 69.4863Z" fill="#9AD8FE"/>
<path d="M298.391 75.2463H294.919C294.762 75.2463 294.608 75.2112 294.467 75.1436C294.326 75.0759 294.202 74.9775 294.104 74.8556C294.006 74.7337 293.938 74.5915 293.903 74.4394C293.868 74.2874 293.867 74.1294 293.902 73.9773L294.545 71.1485C286.294 69.8113 280.088 60.8268 280.088 50.1846C280.088 38.5308 287.52 29.0497 296.655 29.0497C305.79 29.0497 313.222 38.5308 313.222 50.1846C313.222 60.8268 307.015 69.8113 298.765 71.1485L299.408 73.9773C299.442 74.1294 299.442 74.2874 299.407 74.4394C299.372 74.5915 299.303 74.7337 299.205 74.8556C299.108 74.9775 298.984 75.0759 298.843 75.1436C298.702 75.2112 298.547 75.2463 298.391 75.2463Z" fill="#6768F2"/>
<path d="M299.783 72.0126H294.222C294.007 72.0126 293.801 71.9275 293.649 71.7758C293.497 71.6242 293.411 71.4186 293.411 71.2042C293.411 70.9898 293.497 70.7841 293.649 70.6325C293.801 70.4809 294.007 70.3958 294.222 70.3958H299.783C299.998 70.3958 300.204 70.4809 300.356 70.6325C300.509 70.7841 300.594 70.9898 300.594 71.2042C300.594 71.4186 300.509 71.6242 300.356 71.7758C300.204 71.9275 299.998 72.0126 299.783 72.0126Z" fill="#3F3D56"/>
<path d="M293.987 71.0048C293.136 70.7929 292.247 70.7782 291.39 70.9619C290.532 71.1455 289.728 71.5225 289.04 72.0641C288.362 72.6188 287.824 73.3234 287.467 74.122C287.111 74.9206 286.946 75.791 286.986 76.6642C287.155 80.4382 290.967 82.4666 293.624 84.4963C296.763 86.8949 299.71 89.6623 301.837 93.0128C303.944 96.3309 305.265 100.263 304.959 104.223C304.694 107.648 303.137 111.044 300.467 113.26C300.131 113.538 299.777 113.794 299.409 114.028C299.034 114.269 299.382 114.869 299.76 114.627C302.686 112.752 304.621 109.627 305.354 106.269C306.17 102.534 305.443 98.6449 303.84 95.2157C302.175 91.6533 299.556 88.6247 296.613 86.0462C295.153 84.7672 293.602 83.6062 292.032 82.4673C290.651 81.4657 289.203 80.3873 288.345 78.8793C287.921 78.14 287.694 77.305 287.685 76.4535C287.676 75.602 287.885 74.7623 288.292 74.014C288.718 73.2613 289.336 72.6342 290.083 72.1962C290.83 71.7582 291.68 71.525 292.547 71.5202C292.97 71.5161 293.392 71.5675 293.802 71.673C294.235 71.7835 294.42 71.1153 293.987 71.0048Z" fill="#3F3D56"/>
<path d="M286.112 56.0747C285.716 56.0743 285.336 55.9186 285.055 55.6412C284.773 55.3639 284.612 54.9872 284.606 54.5925C283.366 50.987 283.366 47.0725 284.606 43.467C284.611 43.0703 284.773 42.6918 285.057 42.4139C285.341 42.136 285.724 41.9815 286.122 41.984C286.52 41.9866 286.901 42.146 287.181 42.4274C287.461 42.7089 287.619 43.0895 287.618 43.4862L287.611 43.526C286.294 47.1036 286.295 50.8076 287.612 54.535L287.618 54.5733C287.618 54.9714 287.459 55.353 287.177 55.6345C286.894 55.916 286.512 56.0743 286.112 56.0747Z" fill="white"/>
<path d="M167.994 110.97C167.851 110.906 167.725 110.81 167.625 110.69C167.525 110.57 167.453 110.429 167.416 110.277L166.709 107.464C158.741 109.981 149.136 104.755 144.32 95.2571C139.045 84.8568 141.387 73.0529 149.539 68.9442C157.692 64.8356 168.615 69.9543 173.889 80.3546C178.706 89.852 177.233 100.662 170.475 105.566L172.329 107.801C172.429 107.921 172.5 108.062 172.538 108.214C172.575 108.365 172.578 108.523 172.546 108.676C172.514 108.829 172.448 108.972 172.353 109.096C172.258 109.22 172.136 109.321 171.996 109.391L168.898 110.953C168.758 111.023 168.604 111.062 168.448 111.065C168.291 111.068 168.136 111.036 167.994 110.97Z" fill="#00A483"/>
<path d="M165.102 108.336C165.005 108.145 164.989 107.923 165.056 107.719C165.123 107.515 165.268 107.347 165.46 107.25L170.423 104.749C170.615 104.652 170.837 104.636 171.041 104.703C171.245 104.77 171.414 104.915 171.511 105.106C171.608 105.297 171.625 105.519 171.558 105.722C171.491 105.926 171.346 106.095 171.154 106.192L166.192 108.693C166 108.789 165.777 108.806 165.573 108.739C165.369 108.672 165.199 108.527 165.102 108.336Z" fill="#3F3D56"/>
<path d="M170.909 105.186C171.572 104.614 172.358 104.202 173.207 103.98C174.055 103.758 174.943 103.733 175.803 103.907C176.659 104.097 177.458 104.484 178.138 105.036C178.817 105.588 179.358 106.291 179.718 107.088C181.274 110.532 178.791 114.057 177.339 117.063C175.622 120.616 174.245 124.411 173.863 128.358C173.484 132.267 174.085 136.37 176.15 139.766C177.937 142.704 180.863 145.034 184.249 145.811C184.675 145.907 185.107 145.977 185.541 146.021C185.985 146.067 185.946 146.759 185.499 146.713C182.039 146.355 178.898 144.437 176.724 141.77C174.306 138.803 173.194 135.006 173.072 131.225C172.946 127.297 173.913 123.416 175.373 119.791C176.097 117.993 176.955 116.259 177.841 114.536C178.62 113.022 179.424 111.408 179.507 109.676C179.551 108.826 179.376 107.978 178.999 107.214C178.622 106.45 178.055 105.795 177.352 105.311C176.632 104.83 175.797 104.548 174.932 104.494C174.067 104.439 173.203 104.613 172.427 104.999C172.047 105.185 171.694 105.421 171.376 105.699C171.039 105.993 170.572 105.48 170.909 105.186Z" fill="#3F3D56"/>
<path d="M169.155 87.658L169.144 87.6208C168.632 83.7019 166.956 80.3963 164.162 77.7957L164.137 77.7634C163.958 77.4095 163.926 76.9991 164.049 76.6217C164.172 76.2444 164.439 75.9309 164.793 75.7497C165.147 75.5685 165.559 75.5343 165.938 75.6545C166.317 75.7748 166.633 76.0398 166.817 76.3916C169.555 79.0515 171.327 82.545 171.852 86.3204C172.027 86.6766 172.054 87.0874 171.926 87.4632C171.799 87.8389 171.527 88.149 171.171 88.3258C170.815 88.5025 170.403 88.5315 170.025 88.4063C169.647 88.2812 169.335 88.0122 169.155 87.658Z" fill="white"/>
<path d="M319.649 130.331L294.315 117.31C293.933 117.114 293.645 116.774 293.514 116.365C293.383 115.957 293.42 115.514 293.616 115.132L295.183 112.102C295.381 111.722 295.722 111.434 296.131 111.304C296.541 111.173 296.986 111.21 297.368 111.406L322.702 124.427C323.084 124.624 323.372 124.964 323.503 125.372C323.634 125.78 323.597 126.224 323.401 126.605L321.833 129.635C321.736 129.824 321.602 129.992 321.44 130.129C321.277 130.266 321.089 130.37 320.885 130.434C320.725 130.485 320.557 130.511 320.389 130.511C320.131 130.511 319.877 130.449 319.649 130.331Z" fill="#00E280"/>
<path d="M311.925 118.151C312.125 118.073 312.339 118.036 312.553 118.042C312.768 118.047 312.979 118.095 313.175 118.183L321.477 122.76C322.386 123.26 323.067 124.089 323.379 125.076C323.692 126.062 323.613 127.131 323.158 128.061C322.723 128.95 321.976 129.649 321.059 130.025C320.142 130.401 319.118 130.429 318.182 130.104L309.178 126.966C308.983 126.88 308.807 126.757 308.66 126.604C308.512 126.45 308.397 126.269 308.32 126.071C308.243 125.872 308.206 125.661 308.211 125.449C308.216 125.236 308.264 125.027 308.35 124.833L311.027 119.005C311.073 118.899 311.131 118.799 311.199 118.706C311.382 118.455 311.634 118.262 311.925 118.151Z" fill="#2F2E41"/>
<path d="M331.028 116.753C337.876 116.753 343.428 111.218 343.428 104.391C343.428 97.5634 337.876 92.0287 331.028 92.0287C324.179 92.0287 318.627 97.5634 318.627 104.391C318.627 111.218 324.179 116.753 331.028 116.753Z" fill="#00E280"/>
<path d="M329.506 181.272V152.858C329.506 152.43 329.677 152.019 329.981 151.716C330.286 151.412 330.698 151.242 331.128 151.241H334.548C334.978 151.242 335.39 151.412 335.694 151.716C335.998 152.019 336.169 152.43 336.17 152.858V181.272C336.169 181.701 335.998 182.112 335.694 182.415C335.39 182.718 334.978 182.889 334.548 182.889H331.128C330.698 182.889 330.286 182.718 329.981 182.415C329.677 182.112 329.506 181.701 329.506 181.272Z" fill="#00E280"/>
<path d="M322.091 181.272V152.858C322.092 152.43 322.263 152.019 322.567 151.716C322.871 151.412 323.283 151.242 323.713 151.241H327.133C327.563 151.242 327.975 151.412 328.279 151.716C328.583 152.019 328.754 152.43 328.755 152.858V181.272C328.754 181.701 328.583 182.112 328.279 182.415C327.975 182.718 327.563 182.889 327.133 182.889H323.713C323.283 182.889 322.871 182.718 322.567 182.415C322.263 182.112 322.092 181.701 322.091 181.272Z" fill="#00E280"/>
<path d="M331.288 108.973L331.301 108.511C330.439 108.487 329.679 108.433 329.108 108.017C328.946 107.892 328.813 107.734 328.717 107.554C328.622 107.373 328.567 107.174 328.556 106.971C328.546 106.846 328.565 106.721 328.611 106.605C328.657 106.489 328.73 106.386 328.823 106.302C329.202 105.983 329.812 106.086 330.257 106.29L330.64 106.465L329.905 101.108L329.446 101.171L330.071 105.727C329.467 105.55 328.907 105.627 328.524 105.949C328.377 106.078 328.261 106.238 328.186 106.418C328.112 106.598 328.08 106.793 328.093 106.987C328.106 107.261 328.18 107.528 328.308 107.77C328.436 108.013 328.616 108.224 328.834 108.39C329.568 108.924 330.522 108.951 331.288 108.973Z" fill="#2F2E41"/>
<path d="M327.175 101.564H324.679V102.026H327.175V101.564Z" fill="#2F2E41"/>
<path d="M335.053 101.564H332.557V102.026H335.053V101.564Z" fill="#2F2E41"/>
<path d="M342.894 157.56L338.605 129.47C338.541 129.046 338.648 128.614 338.903 128.268C339.158 127.923 339.539 127.693 339.965 127.628L343.345 127.115C343.771 127.051 344.204 127.158 344.55 127.412C344.897 127.666 345.128 128.046 345.193 128.47L349.482 156.561C349.546 156.984 349.439 157.416 349.184 157.762C348.929 158.107 348.548 158.337 348.122 158.402L344.742 158.915C344.531 158.947 344.316 158.938 344.109 158.887C343.902 158.836 343.708 158.746 343.536 158.62C343.364 158.494 343.219 158.335 343.109 158.154C342.999 157.972 342.926 157.77 342.894 157.56Z" fill="#00E280"/>
<path d="M339.579 139.53C339.399 139.414 339.243 139.264 339.122 139.088C339 138.911 338.915 138.712 338.871 138.503L337.708 129.117C337.581 128.09 337.854 127.053 338.471 126.221C339.088 125.39 340.002 124.826 341.024 124.646C342.001 124.475 343.007 124.667 343.852 125.186C344.696 125.704 345.32 126.514 345.606 127.461L348.349 136.567C348.394 136.775 348.398 136.989 348.359 137.198C348.321 137.407 348.242 137.607 348.126 137.785C348.01 137.964 347.861 138.118 347.685 138.238C347.51 138.359 347.312 138.444 347.104 138.489L340.8 139.753C340.687 139.777 340.572 139.79 340.456 139.79C340.145 139.789 339.84 139.699 339.579 139.53Z" fill="#2F2E41"/>
<path d="M339.912 159.834H306.773C306.437 159.834 306.107 159.748 305.813 159.585C305.52 159.422 305.273 159.186 305.097 158.901C304.92 158.616 304.82 158.29 304.806 157.956C304.791 157.621 304.863 157.288 305.014 156.989L321.036 125.226C322.149 123.019 323.977 121.251 326.223 120.208C328.469 119.164 331.003 118.907 333.414 119.478C335.825 120.048 337.972 121.412 339.509 123.35C341.046 125.288 341.882 127.686 341.882 130.156V157.871C341.881 158.391 341.673 158.89 341.304 159.258C340.935 159.626 340.434 159.833 339.912 159.834Z" fill="#2F2E41"/>
<path d="M331.467 94.1918C328.928 94.7568 326.787 96.4062 324.234 96.919C323.071 97.1527 321.79 97.1431 320.722 96.5724C319.931 96.1441 319.326 95.4402 319.023 94.5953C318.723 93.7312 318.645 92.8057 318.798 91.9039C318.951 91.0022 319.328 90.1532 319.896 89.4348C321.328 87.6864 323.613 86.8807 325.805 86.6537C330.191 86.1992 334.696 87.6401 338.266 90.1501C341.953 92.7417 344.78 96.6332 345.729 101.062C346.236 103.429 346.186 105.948 345.32 108.228C344.488 110.409 342.849 112.19 340.74 113.204C340.236 113.446 339.712 113.641 339.172 113.786C339.086 113.813 339.014 113.872 338.971 113.951C338.927 114.03 338.917 114.123 338.941 114.209C338.965 114.296 339.021 114.37 339.099 114.416C339.177 114.461 339.269 114.475 339.357 114.454C341.728 113.809 343.774 112.307 345.096 110.241C346.454 108.076 346.909 105.425 346.7 102.906C346.295 98.032 343.607 93.5526 339.849 90.4861C336.238 87.54 331.568 85.7476 326.872 85.89C324.516 85.9614 322.072 86.5574 320.24 88.1045C319.451 88.7698 318.84 89.6203 318.462 90.5793C318.085 91.5384 317.952 92.576 318.076 93.5989C318.181 94.5558 318.562 95.4619 319.173 96.2076C319.92 97.0489 320.955 97.5819 322.076 97.7021C324.853 98.0624 327.261 96.4933 329.714 95.4847C330.341 95.2216 330.989 95.0126 331.651 94.86C332.088 94.7628 331.903 94.0946 331.467 94.1918Z" fill="#2F2E41"/>
<path d="M338.441 89.2945C337.444 85.574 340.046 81.7017 343.582 80.5399C345.61 79.9102 347.786 79.9344 349.8 80.609C351.764 81.2713 353.527 82.4189 354.925 83.9445C358.024 87.231 359.397 91.6668 360.039 96.0401C360.703 100.556 360.328 105.501 362.646 109.605C363.607 111.306 365.034 112.796 366.876 113.528C368.596 114.211 370.656 114.215 372.303 113.326C372.699 113.11 373.066 112.843 373.393 112.533C373.719 112.226 373.227 111.737 372.901 112.043C371.522 113.34 369.466 113.585 367.694 113.076C365.76 112.52 364.272 111.039 363.291 109.333C362.157 107.36 361.684 105.105 361.427 102.868C361.146 100.426 361.037 97.9701 360.662 95.5377C359.985 91.1506 358.521 86.7468 355.417 83.4545C353.997 81.917 352.227 80.7428 350.256 80.0312C348.226 79.3069 346.028 79.1962 343.935 79.7131C342.034 80.2041 340.357 81.3279 339.184 82.8983C338.044 84.3889 337.464 86.2309 337.545 88.1038C337.575 88.5684 337.651 89.0289 337.771 89.4787C337.798 89.5645 337.857 89.6365 337.937 89.6795C338.016 89.7225 338.109 89.7332 338.196 89.7093C338.282 89.6854 338.357 89.6288 338.403 89.5514C338.448 89.474 338.462 89.3819 338.441 89.2945Z" fill="#2F2E41"/>
<path d="M235.93 131.931L207.114 130.05C206.66 130.02 206.216 129.902 205.807 129.701C205.399 129.501 205.034 129.222 204.734 128.881C204.433 128.539 204.203 128.143 204.057 127.713C203.91 127.283 203.85 126.828 203.88 126.376C203.91 125.923 204.029 125.48 204.23 125.073C204.432 124.666 204.712 124.302 205.054 124.003C205.396 123.704 205.795 123.475 206.226 123.329C206.657 123.183 207.113 123.123 207.567 123.153L236.383 125.035C236.813 125.063 237.213 125.26 237.497 125.582C237.781 125.905 237.925 126.327 237.897 126.755L237.656 130.422C237.629 130.831 237.447 131.215 237.146 131.496C236.846 131.777 236.45 131.934 236.038 131.934C236.002 131.934 235.966 131.933 235.93 131.931Z" fill="#00E280"/>
<path d="M230.295 132.406L206.599 131.523C206.386 131.515 206.176 131.465 205.983 131.377C205.789 131.288 205.615 131.162 205.47 131.007C205.325 130.851 205.212 130.668 205.138 130.469C205.063 130.27 205.029 130.058 205.037 129.845L205.243 124.369C205.259 123.94 205.445 123.535 205.761 123.243C206.076 122.951 206.495 122.796 206.925 122.812L230.621 123.695C230.834 123.703 231.044 123.753 231.237 123.841C231.431 123.93 231.605 124.056 231.75 124.211C231.895 124.367 232.008 124.55 232.082 124.749C232.157 124.948 232.191 125.16 232.183 125.373L231.977 130.849C231.961 131.267 231.783 131.663 231.481 131.953C231.179 132.244 230.776 132.406 230.356 132.407C230.336 132.407 230.315 132.407 230.295 132.406Z" fill="#2F2E41"/>
<path d="M200.965 181.271V150.647C200.966 150.218 201.137 149.806 201.441 149.503C201.746 149.2 202.158 149.029 202.589 149.028H206.275C206.705 149.029 207.117 149.2 207.422 149.503C207.726 149.806 207.897 150.218 207.898 150.647V181.271C207.897 181.7 207.726 182.111 207.422 182.415C207.117 182.718 206.705 182.889 206.275 182.889H202.589C202.158 182.889 201.746 182.718 201.441 182.415C201.137 182.111 200.966 181.7 200.965 181.271Z" fill="#2F2E41"/>
<path d="M216.719 166.156L200.795 139.967C200.573 139.6 200.505 139.16 200.608 138.743C200.71 138.327 200.974 137.968 201.342 137.745L204.494 135.84C204.863 135.618 205.304 135.551 205.722 135.653C206.14 135.755 206.5 136.019 206.724 136.385L222.648 162.574C222.87 162.941 222.938 163.382 222.835 163.798C222.733 164.215 222.469 164.574 222.101 164.797L218.949 166.702C218.581 166.923 218.139 166.991 217.721 166.889C217.303 166.786 216.943 166.523 216.719 166.156Z" fill="#2F2E41"/>
<path d="M208.187 117.068C215.221 117.068 220.923 111.384 220.923 104.372C220.923 97.3598 215.221 91.6754 208.187 91.6754C201.153 91.6754 195.451 97.3598 195.451 104.372C195.451 111.384 201.153 117.068 208.187 117.068Z" fill="#00E280"/>
<path d="M215.081 108.707C215.49 108.573 215.866 108.353 216.184 108.062C216.394 107.854 216.556 107.602 216.658 107.326C216.761 107.049 216.802 106.753 216.777 106.459C216.764 106.249 216.702 106.045 216.597 105.863C216.491 105.682 216.345 105.526 216.17 105.41C215.714 105.119 215.105 105.118 214.485 105.391L214.509 100.434L214.009 100.432L213.981 106.259L214.366 106.017C214.813 105.738 215.45 105.541 215.9 105.829C216.011 105.905 216.104 106.006 216.17 106.123C216.235 106.241 216.273 106.372 216.28 106.506C216.297 106.725 216.266 106.945 216.19 107.152C216.114 107.358 215.994 107.545 215.839 107.701C215.287 108.227 214.483 108.391 213.565 108.538L213.644 109.029C214.132 108.965 214.612 108.857 215.081 108.707Z" fill="#2F2E41"/>
<path d="M219.657 100.184L216.99 100.535L217.056 101.028L219.722 100.677L219.657 100.184Z" fill="#2F2E41"/>
<path d="M211.24 101.291L208.573 101.643L208.638 102.136L211.305 101.785L211.24 101.291Z" fill="#2F2E41"/>
<path d="M195.429 156.747V131.723C195.433 128.688 196.643 125.778 198.796 123.632C200.949 121.486 203.867 120.279 206.912 120.276H214.533C215.094 120.275 215.631 120.496 216.029 120.89C216.426 121.283 216.652 121.817 216.655 122.376L221.151 156.747C221.151 157.308 220.927 157.846 220.529 158.243C220.131 158.64 219.591 158.863 219.029 158.863H197.552C196.989 158.863 196.45 158.64 196.052 158.243C195.654 157.846 195.43 157.308 195.429 156.747Z" fill="#2F2E41"/>
<path d="M179.483 144.781L201.335 125.962C201.679 125.665 202.079 125.438 202.511 125.295C202.943 125.152 203.399 125.096 203.853 125.129C204.308 125.161 204.751 125.283 205.158 125.487C205.565 125.691 205.927 125.972 206.225 126.316C206.523 126.659 206.75 127.058 206.893 127.489C207.036 127.92 207.092 128.375 207.059 128.827C207.026 129.28 206.903 129.722 206.699 130.127C206.494 130.533 206.211 130.894 205.867 131.191L184.015 150.011C183.854 150.15 183.667 150.256 183.464 150.323C183.262 150.389 183.048 150.416 182.836 150.4C182.623 150.385 182.416 150.328 182.225 150.232C182.035 150.137 181.865 150.005 181.726 149.844L179.316 147.064C179.034 146.739 178.894 146.316 178.925 145.888C178.957 145.46 179.157 145.062 179.483 144.781Z" fill="#00E280"/>
<path d="M184.306 138.571L202.249 123.117C202.411 122.978 202.598 122.872 202.8 122.805C203.003 122.738 203.216 122.712 203.429 122.727C203.641 122.743 203.849 122.8 204.039 122.895C204.23 122.991 204.4 123.123 204.539 123.283L208.655 128.033C208.794 128.193 208.9 128.38 208.967 128.582C209.034 128.783 209.061 128.996 209.045 129.208C209.03 129.42 208.973 129.627 208.877 129.817C208.781 130.007 208.649 130.176 208.488 130.315L190.544 145.769C190.218 146.049 189.794 146.189 189.365 146.158C188.936 146.126 188.537 145.927 188.255 145.602L184.139 140.853C183.858 140.528 183.717 140.105 183.748 139.677C183.78 139.249 183.98 138.851 184.306 138.571Z" fill="#2F2E41"/>
<path d="M207.948 96.8416C209.651 95.4371 211.927 96.7655 213.852 96.577C215.694 96.3966 217.177 94.7805 217.581 93.0415C218.052 91.0127 217.031 88.9518 215.492 87.6521C213.806 86.2286 211.543 85.7863 209.386 86.0029C206.914 86.2511 204.637 87.3545 202.586 88.7023C200.608 89.9619 198.783 91.4455 197.147 93.1234C195.68 94.6771 194.428 96.5386 193.999 98.6586C193.609 100.585 193.838 102.733 194.953 104.392C195.545 105.243 196.347 105.928 197.282 106.38C198.255 106.88 199.298 107.244 200.24 107.806C201.664 108.656 203.031 110.388 202.546 112.155C202.442 112.541 202.245 112.896 201.971 113.187C201.642 113.538 201.069 113.056 201.399 112.704C201.979 112.087 201.972 111.249 201.684 110.493C201.341 109.642 200.717 108.932 199.916 108.479C198.93 107.892 197.836 107.521 196.824 106.984C195.855 106.492 195.019 105.775 194.388 104.892C193.197 103.175 192.873 100.963 193.19 98.9284C193.532 96.7267 194.708 94.7424 196.166 93.0884C197.753 91.2885 199.689 89.7762 201.663 88.4219C203.782 86.9689 206.114 85.7507 208.678 85.3426C210.9 84.9889 213.296 85.278 215.21 86.5178C216.996 87.6752 218.346 89.6334 218.443 91.7947C218.473 92.7779 218.241 93.7515 217.769 94.6153C217.297 95.4791 216.603 96.2019 215.757 96.7093C214.89 97.2044 213.89 97.4157 212.896 97.3133C211.833 97.2253 210.774 96.8803 209.702 96.9502C209.216 96.9703 208.751 97.1476 208.376 97.4551C208.004 97.7619 207.58 97.146 207.948 96.8416Z" fill="#2F2E41"/>
<path d="M222.686 164.151L213.131 178.919C212.897 179.279 212.53 179.532 212.109 179.623C211.689 179.713 211.249 179.634 210.887 179.401L207.79 177.41C207.428 177.177 207.174 176.811 207.083 176.391C206.992 175.972 207.072 175.534 207.305 175.173L216.86 160.405C217.094 160.045 217.462 159.792 217.882 159.701C218.303 159.611 218.742 159.69 219.104 159.922L222.202 161.914C222.381 162.029 222.536 162.178 222.658 162.353C222.779 162.528 222.864 162.725 222.909 162.933C222.915 162.961 222.92 162.989 222.925 163.017C222.989 163.411 222.904 163.816 222.686 164.151Z" fill="#2F2E41"/>
<path d="M367.383 183H160.47C160.409 183 160.35 182.976 160.307 182.932C160.263 182.889 160.239 182.83 160.239 182.769C160.239 182.708 160.263 182.649 160.307 182.606C160.35 182.562 160.409 182.538 160.47 182.538H367.383C367.444 182.538 367.503 182.562 367.547 182.606C367.59 182.649 367.615 182.708 367.615 182.769C367.615 182.83 367.59 182.889 367.547 182.932C367.503 182.976 367.444 183 367.383 183Z" fill="#3F3D56"/>
<path d="M235.137 92.2236H233.747V96.6123H235.137V92.2236Z" fill="#312EBD"/>
<path d="M257.612 79.7505H256.222V84.1392H257.612V79.7505Z" fill="#312EBD"/>
<path d="M251.92 93.1935L250.832 94.0566L253.574 97.4903L254.661 96.6272L251.92 93.1935Z" fill="#312EBD"/>
<path d="M245.367 106.492L243.166 110.293L244.37 110.986L246.571 107.185L245.367 106.492Z" fill="#312EBD"/>
<path d="M239.111 63.7602L236.91 67.5609L238.114 68.2539L240.315 64.4532L239.111 63.7602Z" fill="#312EBD"/>
<path d="M274.99 138.651H273.6V143.04H274.99V138.651Z" fill="#312EBD"/>
<path d="M297.466 126.178H296.076V130.567H297.466V126.178Z" fill="#312EBD"/>
<path d="M291.773 139.621L290.685 140.484L293.427 143.918L294.514 143.055L291.773 139.621Z" fill="#312EBD"/>
<path d="M285.221 152.92L283.02 156.72L284.224 157.413L286.425 153.613L285.221 152.92Z" fill="#312EBD"/>
<path d="M278.964 110.188L276.763 113.989L277.967 114.681L280.168 110.881L278.964 110.188Z" fill="#312EBD"/>
<path d="M209.316 91.6813L207.057 90.3434L205.264 89.2797L202.664 87.7387L200.869 86.6762L198.428 85.2279C198.389 85.2047 198.344 85.1922 198.298 85.1917C198.252 85.1912 198.206 85.2027 198.166 85.2251C198.126 85.2476 198.093 85.2801 198.069 85.3194C198.046 85.3588 198.033 85.4036 198.032 85.4495L198.007 87.5083L197.985 89.0995L197.956 91.4057L197.938 92.9978L197.908 95.304L197.889 96.8939L197.873 98.0756C197.871 98.1216 197.882 98.1671 197.905 98.207C197.928 98.2466 197.96 98.28 197.999 98.304C198.038 98.3275 198.083 98.3402 198.129 98.3407C198.175 98.3412 198.221 98.3295 198.261 98.3068L209.311 92.1315C209.346 92.1131 209.376 92.0867 209.399 92.0544C209.421 92.0221 209.436 91.9849 209.441 91.9459C209.444 91.9332 209.445 91.9202 209.446 91.9072C209.445 91.8616 209.434 91.8169 209.412 91.7771C209.389 91.7367 209.356 91.7035 209.316 91.6813Z" fill="#00A483"/>
<path d="M202.664 87.7387L197.985 89.0996L198.007 87.5084L200.869 86.6761L202.664 87.7387Z" fill="#3F3D56"/>
<path d="M207.057 90.3434L197.938 92.9979L197.956 91.4057L205.264 89.2795L207.057 90.3434Z" fill="#3F3D56"/>
<path d="M209.441 91.9459C209.436 91.9849 209.421 92.0221 209.399 92.0544C209.376 92.0867 209.346 92.1132 209.312 92.1316L203.939 95.1339L197.889 96.894L197.908 95.304L209.441 91.9459Z" fill="#3F3D56"/>
<path d="M197.656 86.3998C198.81 86.3998 199.745 85.4671 199.745 84.3166C199.745 83.1662 198.81 82.2335 197.656 82.2335C196.501 82.2335 195.566 83.1662 195.566 84.3166C195.566 85.4671 196.501 86.3998 197.656 86.3998Z" fill="#00A483"/>
</g>
<path d="M121.831 233.168C120.663 233.168 119.607 232.968 118.663 232.568C117.735 232.168 116.999 231.592 116.455 230.84C115.911 230.088 115.631 229.2 115.615 228.176H119.215C119.263 228.864 119.503 229.408 119.935 229.808C120.383 230.208 120.991 230.408 121.759 230.408C122.543 230.408 123.159 230.224 123.607 229.856C124.055 229.472 124.279 228.976 124.279 228.368C124.279 227.872 124.127 227.464 123.823 227.144C123.519 226.824 123.135 226.576 122.671 226.4C122.223 226.208 121.599 226 120.799 225.776C119.711 225.456 118.823 225.144 118.135 224.84C117.463 224.52 116.879 224.048 116.383 223.424C115.903 222.784 115.663 221.936 115.663 220.88C115.663 219.888 115.911 219.024 116.407 218.288C116.903 217.552 117.599 216.992 118.495 216.608C119.391 216.208 120.415 216.008 121.567 216.008C123.295 216.008 124.695 216.432 125.767 217.28C126.855 218.112 127.455 219.28 127.567 220.784H123.871C123.839 220.208 123.591 219.736 123.127 219.368C122.679 218.984 122.079 218.792 121.327 218.792C120.671 218.792 120.143 218.96 119.743 219.296C119.359 219.632 119.167 220.12 119.167 220.76C119.167 221.208 119.311 221.584 119.599 221.888C119.903 222.176 120.271 222.416 120.703 222.608C121.151 222.784 121.775 222.992 122.575 223.232C123.663 223.552 124.551 223.872 125.239 224.192C125.927 224.512 126.519 224.992 127.015 225.632C127.511 226.272 127.759 227.112 127.759 228.152C127.759 229.048 127.527 229.88 127.063 230.648C126.599 231.416 125.919 232.032 125.023 232.496C124.127 232.944 123.063 233.168 121.831 233.168ZM143.032 226.064C143.032 226.544 143 226.976 142.936 227.36H133.216C133.296 228.32 133.632 229.072 134.224 229.616C134.816 230.16 135.544 230.432 136.408 230.432C137.656 230.432 138.544 229.896 139.072 228.824H142.696C142.312 230.104 141.576 231.16 140.488 231.992C139.4 232.808 138.064 233.216 136.48 233.216C135.2 233.216 134.048 232.936 133.024 232.376C132.016 231.8 131.224 230.992 130.648 229.952C130.088 228.912 129.808 227.712 129.808 226.352C129.808 224.976 130.088 223.768 130.648 222.728C131.208 221.688 131.992 220.888 133 220.328C134.008 219.768 135.168 219.488 136.48 219.488C137.744 219.488 138.872 219.76 139.864 220.304C140.872 220.848 141.648 221.624 142.192 222.632C142.752 223.624 143.032 224.768 143.032 226.064ZM139.552 225.104C139.536 224.24 139.224 223.552 138.616 223.04C138.008 222.512 137.264 222.248 136.384 222.248C135.552 222.248 134.848 222.504 134.272 223.016C133.712 223.512 133.368 224.208 133.24 225.104H139.552ZM147.188 218.12C146.58 218.12 146.076 217.936 145.676 217.568C145.292 217.184 145.1 216.712 145.1 216.152C145.1 215.592 145.292 215.128 145.676 214.76C146.076 214.376 146.58 214.184 147.188 214.184C147.78 214.184 148.268 214.376 148.652 214.76C149.036 215.128 149.228 215.592 149.228 216.152C149.228 216.712 149.036 217.184 148.652 217.568C148.268 217.936 147.78 218.12 147.188 218.12ZM148.844 235.184C148.844 236.656 148.476 237.712 147.74 238.352C147.02 239.008 145.98 239.336 144.62 239.336H143.132V236.48H144.092C144.604 236.48 144.964 236.376 145.172 236.168C145.38 235.976 145.484 235.656 145.484 235.208V219.704H148.844V235.184ZM151.3 226.304C151.3 224.96 151.564 223.768 152.092 222.728C152.636 221.688 153.364 220.888 154.276 220.328C155.204 219.768 156.236 219.488 157.372 219.488C158.364 219.488 159.228 219.688 159.964 220.088C160.716 220.488 161.316 220.992 161.764 221.6V219.704H165.148V233H161.764V231.056C161.332 231.68 160.732 232.2 159.964 232.616C159.212 233.016 158.34 233.216 157.348 233.216C156.228 233.216 155.204 232.928 154.276 232.352C153.364 231.776 152.636 230.968 152.092 229.928C151.564 228.872 151.3 227.664 151.3 226.304ZM161.764 226.352C161.764 225.536 161.604 224.84 161.284 224.264C160.964 223.672 160.532 223.224 159.988 222.92C159.444 222.6 158.86 222.44 158.236 222.44C157.612 222.44 157.036 222.592 156.508 222.896C155.98 223.2 155.548 223.648 155.212 224.24C154.892 224.816 154.732 225.504 154.732 226.304C154.732 227.104 154.892 227.808 155.212 228.416C155.548 229.008 155.98 229.464 156.508 229.784C157.052 230.104 157.628 230.264 158.236 230.264C158.86 230.264 159.444 230.112 159.988 229.808C160.532 229.488 160.964 229.04 161.284 228.464C161.604 227.872 161.764 227.168 161.764 226.352ZM186.7 219.704V233H183.316V231.32C182.884 231.896 182.316 232.352 181.612 232.688C180.924 233.008 180.172 233.168 179.356 233.168C178.316 233.168 177.396 232.952 176.596 232.52C175.796 232.072 175.164 231.424 174.7 230.576C174.252 229.712 174.028 228.688 174.028 227.504V219.704H177.388V227.024C177.388 228.08 177.652 228.896 178.18 229.472C178.708 230.032 179.428 230.312 180.34 230.312C181.268 230.312 181.996 230.032 182.524 229.472C183.052 228.896 183.316 228.08 183.316 227.024V219.704H186.7ZM206.527 219.512C208.159 219.512 209.471 220.016 210.463 221.024C211.471 222.016 211.975 223.408 211.975 225.2V233H208.615V225.656C208.615 224.616 208.351 223.824 207.823 223.28C207.295 222.72 206.575 222.44 205.663 222.44C204.751 222.44 204.023 222.72 203.479 223.28C202.951 223.824 202.687 224.616 202.687 225.656V233H199.327V225.656C199.327 224.616 199.063 223.824 198.535 223.28C198.007 222.72 197.287 222.44 196.375 222.44C195.447 222.44 194.711 222.72 194.167 223.28C193.639 223.824 193.375 224.616 193.375 225.656V233H190.015V219.704H193.375V221.312C193.807 220.752 194.359 220.312 195.031 219.992C195.719 219.672 196.471 219.512 197.287 219.512C198.327 219.512 199.255 219.736 200.071 220.184C200.887 220.616 201.519 221.24 201.967 222.056C202.399 221.288 203.023 220.672 203.839 220.208C204.671 219.744 205.567 219.512 206.527 219.512ZM220.019 226.304C220.019 224.96 220.283 223.768 220.811 222.728C221.355 221.688 222.083 220.888 222.995 220.328C223.923 219.768 224.955 219.488 226.091 219.488C227.083 219.488 227.947 219.688 228.683 220.088C229.435 220.488 230.035 220.992 230.483 221.6V219.704H233.867V233H230.483V231.056C230.051 231.68 229.451 232.2 228.683 232.616C227.931 233.016 227.059 233.216 226.067 233.216C224.947 233.216 223.923 232.928 222.995 232.352C222.083 231.776 221.355 230.968 220.811 229.928C220.283 228.872 220.019 227.664 220.019 226.304ZM230.483 226.352C230.483 225.536 230.323 224.84 230.003 224.264C229.683 223.672 229.251 223.224 228.707 222.92C228.163 222.6 227.579 222.44 226.955 222.44C226.331 222.44 225.755 222.592 225.227 222.896C224.699 223.2 224.267 223.648 223.931 224.24C223.611 224.816 223.451 225.504 223.451 226.304C223.451 227.104 223.611 227.808 223.931 228.416C224.267 229.008 224.699 229.464 225.227 229.784C225.771 230.104 226.347 230.264 226.955 230.264C227.579 230.264 228.163 230.112 228.707 229.808C229.251 229.488 229.683 229.04 230.003 228.464C230.323 227.872 230.483 227.168 230.483 226.352ZM253.66 219.512C255.292 219.512 256.604 220.016 257.596 221.024C258.604 222.016 259.108 223.408 259.108 225.2V233H255.748V225.656C255.748 224.616 255.484 223.824 254.956 223.28C254.428 222.72 253.708 222.44 252.796 222.44C251.884 222.44 251.156 222.72 250.612 223.28C250.084 223.824 249.82 224.616 249.82 225.656V233H246.46V225.656C246.46 224.616 246.196 223.824 245.668 223.28C245.14 222.72 244.42 222.44 243.508 222.44C242.58 222.44 241.844 222.72 241.3 223.28C240.772 223.824 240.508 224.616 240.508 225.656V233H237.148V219.704H240.508V221.312C240.94 220.752 241.492 220.312 242.164 219.992C242.852 219.672 243.604 219.512 244.42 219.512C245.46 219.512 246.388 219.736 247.204 220.184C248.02 220.616 248.652 221.24 249.1 222.056C249.532 221.288 250.156 220.672 250.972 220.208C251.804 219.744 252.7 219.512 253.66 219.512ZM264.001 218.12C263.409 218.12 262.913 217.936 262.513 217.568C262.129 217.184 261.937 216.712 261.937 216.152C261.937 215.592 262.129 215.128 262.513 214.76C262.913 214.376 263.409 214.184 264.001 214.184C264.593 214.184 265.081 214.376 265.465 214.76C265.865 215.128 266.065 215.592 266.065 216.152C266.065 216.712 265.865 217.184 265.465 217.568C265.081 217.936 264.593 218.12 264.001 218.12ZM265.657 219.704V233H262.297V219.704H265.657ZM274.184 219.488C275.176 219.488 276.048 219.688 276.8 220.088C277.552 220.472 278.144 220.976 278.576 221.6V219.704H281.96V233.096C281.96 234.328 281.712 235.424 281.216 236.384C280.72 237.36 279.976 238.128 278.984 238.688C277.992 239.264 276.792 239.552 275.384 239.552C273.496 239.552 271.944 239.112 270.728 238.232C269.528 237.352 268.848 236.152 268.688 234.632H272.024C272.2 235.24 272.576 235.72 273.152 236.072C273.744 236.44 274.456 236.624 275.288 236.624C276.264 236.624 277.056 236.328 277.664 235.736C278.272 235.16 278.576 234.28 278.576 233.096V231.032C278.144 231.656 277.544 232.176 276.776 232.592C276.024 233.008 275.16 233.216 274.184 233.216C273.064 233.216 272.04 232.928 271.112 232.352C270.184 231.776 269.448 230.968 268.904 229.928C268.376 228.872 268.112 227.664 268.112 226.304C268.112 224.96 268.376 223.768 268.904 222.728C269.448 221.688 270.176 220.888 271.088 220.328C272.016 219.768 273.048 219.488 274.184 219.488ZM278.576 226.352C278.576 225.536 278.416 224.84 278.096 224.264C277.776 223.672 277.344 223.224 276.8 222.92C276.256 222.6 275.672 222.44 275.048 222.44C274.424 222.44 273.848 222.592 273.32 222.896C272.792 223.2 272.36 223.648 272.024 224.24C271.704 224.816 271.544 225.504 271.544 226.304C271.544 227.104 271.704 227.808 272.024 228.416C272.36 229.008 272.792 229.464 273.32 229.784C273.864 230.104 274.44 230.264 275.048 230.264C275.672 230.264 276.256 230.112 276.8 229.808C277.344 229.488 277.776 229.04 278.096 228.464C278.416 227.872 278.576 227.168 278.576 226.352ZM291.146 233.216C289.866 233.216 288.714 232.936 287.69 232.376C286.666 231.8 285.858 230.992 285.266 229.952C284.69 228.912 284.402 227.712 284.402 226.352C284.402 224.992 284.698 223.792 285.29 222.752C285.898 221.712 286.722 220.912 287.762 220.352C288.802 219.776 289.962 219.488 291.242 219.488C292.522 219.488 293.682 219.776 294.722 220.352C295.762 220.912 296.578 221.712 297.17 222.752C297.778 223.792 298.082 224.992 298.082 226.352C298.082 227.712 297.77 228.912 297.146 229.952C296.538 230.992 295.706 231.8 294.65 232.376C293.61 232.936 292.442 233.216 291.146 233.216ZM291.146 230.288C291.754 230.288 292.322 230.144 292.85 229.856C293.394 229.552 293.826 229.104 294.146 228.512C294.466 227.92 294.626 227.2 294.626 226.352C294.626 225.088 294.29 224.12 293.618 223.448C292.962 222.76 292.154 222.416 291.194 222.416C290.234 222.416 289.426 222.76 288.77 223.448C288.13 224.12 287.81 225.088 287.81 226.352C287.81 227.616 288.122 228.592 288.746 229.28C289.386 229.952 290.186 230.288 291.146 230.288ZM322.777 219.512C324.409 219.512 325.721 220.016 326.713 221.024C327.721 222.016 328.225 223.408 328.225 225.2V233H324.865V225.656C324.865 224.616 324.601 223.824 324.073 223.28C323.545 222.72 322.825 222.44 321.913 222.44C321.001 222.44 320.273 222.72 319.729 223.28C319.201 223.824 318.937 224.616 318.937 225.656V233H315.577V225.656C315.577 224.616 315.313 223.824 314.785 223.28C314.257 222.72 313.537 222.44 312.625 222.44C311.697 222.44 310.961 222.72 310.417 223.28C309.889 223.824 309.625 224.616 309.625 225.656V233H306.265V219.704H309.625V221.312C310.057 220.752 310.609 220.312 311.281 219.992C311.969 219.672 312.721 219.512 313.537 219.512C314.577 219.512 315.505 219.736 316.321 220.184C317.137 220.616 317.769 221.24 318.217 222.056C318.649 221.288 319.273 220.672 320.089 220.208C320.921 219.744 321.817 219.512 322.777 219.512ZM343.774 226.064C343.774 226.544 343.742 226.976 343.678 227.36H333.958C334.038 228.32 334.374 229.072 334.966 229.616C335.558 230.16 336.286 230.432 337.15 230.432C338.398 230.432 339.286 229.896 339.814 228.824H343.438C343.054 230.104 342.318 231.16 341.23 231.992C340.142 232.808 338.806 233.216 337.222 233.216C335.942 233.216 334.79 232.936 333.766 232.376C332.758 231.8 331.966 230.992 331.39 229.952C330.83 228.912 330.55 227.712 330.55 226.352C330.55 224.976 330.83 223.768 331.39 222.728C331.95 221.688 332.734 220.888 333.742 220.328C334.75 219.768 335.91 219.488 337.222 219.488C338.486 219.488 339.614 219.76 340.606 220.304C341.614 220.848 342.39 221.624 342.934 222.632C343.494 223.624 343.774 224.768 343.774 226.064ZM340.294 225.104C340.278 224.24 339.966 223.552 339.358 223.04C338.75 222.512 338.006 222.248 337.126 222.248C336.294 222.248 335.59 222.504 335.014 223.016C334.454 223.512 334.11 224.208 333.982 225.104H340.294ZM349.586 215.24V233H346.226V215.24H349.586ZM360.394 219.512C361.402 219.512 362.298 219.736 363.082 220.184C363.866 220.616 364.474 221.264 364.906 222.128C365.354 222.976 365.578 224 365.578 225.2V233H362.218V225.656C362.218 224.6 361.954 223.792 361.426 223.232C360.898 222.656 360.178 222.368 359.266 222.368C358.338 222.368 357.602 222.656 357.058 223.232C356.53 223.792 356.266 224.6 356.266 225.656V233H352.906V215.24H356.266V221.36C356.698 220.784 357.274 220.336 357.994 220.016C358.714 219.68 359.514 219.512 360.394 219.512ZM374.677 233.216C373.397 233.216 372.245 232.936 371.221 232.376C370.197 231.8 369.389 230.992 368.797 229.952C368.221 228.912 367.933 227.712 367.933 226.352C367.933 224.992 368.229 223.792 368.821 222.752C369.429 221.712 370.253 220.912 371.293 220.352C372.333 219.776 373.493 219.488 374.773 219.488C376.053 219.488 377.213 219.776 378.253 220.352C379.293 220.912 380.109 221.712 380.701 222.752C381.309 223.792 381.613 224.992 381.613 226.352C381.613 227.712 381.301 228.912 380.677 229.952C380.069 230.992 379.237 231.8 378.181 232.376C377.141 232.936 375.973 233.216 374.677 233.216ZM374.677 230.288C375.285 230.288 375.853 230.144 376.381 229.856C376.925 229.552 377.357 229.104 377.677 228.512C377.997 227.92 378.157 227.2 378.157 226.352C378.157 225.088 377.821 224.12 377.149 223.448C376.493 222.76 375.685 222.416 374.725 222.416C373.765 222.416 372.957 222.76 372.301 223.448C371.661 224.12 371.341 225.088 371.341 226.352C371.341 227.616 371.653 228.592 372.277 229.28C372.917 229.952 373.717 230.288 374.677 230.288ZM387.438 221.768C387.87 221.064 388.43 220.512 389.118 220.112C389.822 219.712 390.622 219.512 391.518 219.512V223.04H390.63C389.574 223.04 388.774 223.288 388.23 223.784C387.702 224.28 387.438 225.144 387.438 226.376V233H384.078V219.704H387.438V221.768ZM398.125 215.96L397.741 227.552H394.909L394.501 215.96H398.125ZM396.397 233.168C395.789 233.168 395.285 232.984 394.885 232.616C394.501 232.232 394.309 231.76 394.309 231.2C394.309 230.64 394.501 230.176 394.885 229.808C395.285 229.424 395.789 229.232 396.397 229.232C396.989 229.232 397.477 229.424 397.861 229.808C398.245 230.176 398.437 230.64 398.437 231.2C398.437 231.76 398.245 232.232 397.861 232.616C397.477 232.984 396.989 233.168 396.397 233.168Z" fill="#6768F2"/>
<path d="M42.4316 267H40.7936L34.2056 257.01V267H32.5676V254.436H34.2056L40.7936 264.408V254.436H42.4316V267ZM53.9719 257.136V267H52.3339V265.542C52.0219 266.046 51.5839 266.442 51.0199 266.73C50.4679 267.006 49.8559 267.144 49.1839 267.144C48.4159 267.144 47.7259 266.988 47.1139 266.676C46.5019 266.352 46.0159 265.872 45.6559 265.236C45.3079 264.6 45.1339 263.826 45.1339 262.914V257.136H46.7539V262.698C46.7539 263.67 46.9999 264.42 47.4919 264.948C47.9839 265.464 48.6559 265.722 49.5079 265.722C50.3839 265.722 51.0739 265.452 51.5779 264.912C52.0819 264.372 52.3339 263.586 52.3339 262.554V257.136H53.9719ZM61.5436 256.956C62.7436 256.956 63.7156 257.322 64.4596 258.054C65.2036 258.774 65.5756 259.818 65.5756 261.186V267H63.9556V261.42C63.9556 260.436 63.7096 259.686 63.2176 259.17C62.7256 258.642 62.0536 258.378 61.2016 258.378C60.3376 258.378 59.6476 258.648 59.1316 259.188C58.6276 259.728 58.3756 260.514 58.3756 261.546V267H56.7376V257.136H58.3756V258.54C58.6996 258.036 59.1376 257.646 59.6896 257.37C60.2536 257.094 60.8716 256.956 61.5436 256.956ZM67.6392 262.05C67.6392 261.03 67.8432 260.142 68.2512 259.386C68.6592 258.618 69.2232 258.024 69.9432 257.604C70.6752 257.184 71.5092 256.974 72.4452 256.974C73.6572 256.974 74.6532 257.268 75.4332 257.856C76.2252 258.444 76.7472 259.26 76.9992 260.304H75.2352C75.0672 259.704 74.7372 259.23 74.2452 258.882C73.7652 258.534 73.1652 258.36 72.4452 258.36C71.5092 258.36 70.7532 258.684 70.1772 259.332C69.6012 259.968 69.3132 260.874 69.3132 262.05C69.3132 263.238 69.6012 264.156 70.1772 264.804C70.7532 265.452 71.5092 265.776 72.4452 265.776C73.1652 265.776 73.7652 265.608 74.2452 265.272C74.7252 264.936 75.0552 264.456 75.2352 263.832H76.9992C76.7352 264.84 76.2072 265.65 75.4152 266.262C74.6232 266.862 73.6332 267.162 72.4452 267.162C71.5092 267.162 70.6752 266.952 69.9432 266.532C69.2232 266.112 68.6592 265.518 68.2512 264.75C67.8432 263.982 67.6392 263.082 67.6392 262.05ZM78.5728 262.032C78.5728 261.024 78.7768 260.142 79.1848 259.386C79.5928 258.618 80.1508 258.024 80.8588 257.604C81.5788 257.184 82.3768 256.974 83.2528 256.974C84.1168 256.974 84.8668 257.16 85.5028 257.532C86.1388 257.904 86.6128 258.372 86.9248 258.936V257.136H88.5808V267H86.9248V265.164C86.6008 265.74 86.1148 266.22 85.4668 266.604C84.8308 266.976 84.0868 267.162 83.2348 267.162C82.3588 267.162 81.5668 266.946 80.8588 266.514C80.1508 266.082 79.5928 265.476 79.1848 264.696C78.7768 263.916 78.5728 263.028 78.5728 262.032ZM86.9248 262.05C86.9248 261.306 86.7748 260.658 86.4748 260.106C86.1748 259.554 85.7668 259.134 85.2508 258.846C84.7468 258.546 84.1888 258.396 83.5768 258.396C82.9648 258.396 82.4068 258.54 81.9028 258.828C81.3988 259.116 80.9968 259.536 80.6968 260.088C80.3968 260.64 80.2468 261.288 80.2468 262.032C80.2468 262.788 80.3968 263.448 80.6968 264.012C80.9968 264.564 81.3988 264.99 81.9028 265.29C82.4068 265.578 82.9648 265.722 83.5768 265.722C84.1888 265.722 84.7468 265.578 85.2508 265.29C85.7668 264.99 86.1748 264.564 86.4748 264.012C86.7748 263.448 86.9248 262.794 86.9248 262.05ZM108.01 256.956C108.778 256.956 109.462 257.118 110.062 257.442C110.662 257.754 111.136 258.228 111.484 258.864C111.832 259.5 112.006 260.274 112.006 261.186V267H110.386V261.42C110.386 260.436 110.14 259.686 109.648 259.17C109.168 258.642 108.514 258.378 107.686 258.378C106.834 258.378 106.156 258.654 105.652 259.206C105.148 259.746 104.896 260.532 104.896 261.564V267H103.276V261.42C103.276 260.436 103.03 259.686 102.538 259.17C102.058 258.642 101.404 258.378 100.576 258.378C99.7237 258.378 99.0457 258.654 98.5417 259.206C98.0377 259.746 97.7857 260.532 97.7857 261.564V267H96.1477V257.136H97.7857V258.558C98.1097 258.042 98.5417 257.646 99.0817 257.37C99.6337 257.094 100.24 256.956 100.9 256.956C101.728 256.956 102.46 257.142 103.096 257.514C103.732 257.886 104.206 258.432 104.518 259.152C104.794 258.456 105.25 257.916 105.886 257.532C106.522 257.148 107.23 256.956 108.01 256.956ZM114.081 262.032C114.081 261.024 114.285 260.142 114.693 259.386C115.101 258.618 115.659 258.024 116.367 257.604C117.087 257.184 117.885 256.974 118.761 256.974C119.625 256.974 120.375 257.16 121.011 257.532C121.647 257.904 122.121 258.372 122.433 258.936V257.136H124.089V267H122.433V265.164C122.109 265.74 121.623 266.22 120.975 266.604C120.339 266.976 119.595 267.162 118.743 267.162C117.867 267.162 117.075 266.946 116.367 266.514C115.659 266.082 115.101 265.476 114.693 264.696C114.285 263.916 114.081 263.028 114.081 262.032ZM122.433 262.05C122.433 261.306 122.283 260.658 121.983 260.106C121.683 259.554 121.275 259.134 120.759 258.846C120.255 258.546 119.697 258.396 119.085 258.396C118.473 258.396 117.915 258.54 117.411 258.828C116.907 259.116 116.505 259.536 116.205 260.088C115.905 260.64 115.755 261.288 115.755 262.032C115.755 262.788 115.905 263.448 116.205 264.012C116.505 264.564 116.907 264.99 117.411 265.29C117.915 265.578 118.473 265.722 119.085 265.722C119.697 265.722 120.255 265.578 120.759 265.29C121.275 264.99 121.683 264.564 121.983 264.012C122.283 263.448 122.433 262.794 122.433 262.05ZM127.703 255.534C127.391 255.534 127.127 255.426 126.911 255.21C126.695 254.994 126.587 254.73 126.587 254.418C126.587 254.106 126.695 253.842 126.911 253.626C127.127 253.41 127.391 253.302 127.703 253.302C128.003 253.302 128.255 253.41 128.459 253.626C128.675 253.842 128.783 254.106 128.783 254.418C128.783 254.73 128.675 254.994 128.459 255.21C128.255 255.426 128.003 255.534 127.703 255.534ZM128.495 257.136V267H126.857V257.136H128.495ZM134.778 267.162C134.022 267.162 133.344 267.036 132.744 266.784C132.144 266.52 131.67 266.16 131.322 265.704C130.974 265.236 130.782 264.702 130.746 264.102H132.438C132.486 264.594 132.714 264.996 133.122 265.308C133.542 265.62 134.088 265.776 134.76 265.776C135.384 265.776 135.876 265.638 136.236 265.362C136.596 265.086 136.776 264.738 136.776 264.318C136.776 263.886 136.584 263.568 136.2 263.364C135.816 263.148 135.222 262.938 134.418 262.734C133.686 262.542 133.086 262.35 132.618 262.158C132.162 261.954 131.766 261.66 131.43 261.276C131.106 260.88 130.944 260.364 130.944 259.728C130.944 259.224 131.094 258.762 131.394 258.342C131.694 257.922 132.12 257.592 132.672 257.352C133.224 257.1 133.854 256.974 134.562 256.974C135.654 256.974 136.536 257.25 137.208 257.802C137.88 258.354 138.24 259.11 138.288 260.07H136.65C136.614 259.554 136.404 259.14 136.02 258.828C135.648 258.516 135.144 258.36 134.508 258.36C133.92 258.36 133.452 258.486 133.104 258.738C132.756 258.99 132.582 259.32 132.582 259.728C132.582 260.052 132.684 260.322 132.888 260.538C133.104 260.742 133.368 260.91 133.68 261.042C134.004 261.162 134.448 261.3 135.012 261.456C135.72 261.648 136.296 261.84 136.74 262.032C137.184 262.212 137.562 262.488 137.874 262.86C138.198 263.232 138.366 263.718 138.378 264.318C138.378 264.858 138.228 265.344 137.928 265.776C137.628 266.208 137.202 266.55 136.65 266.802C136.11 267.042 135.486 267.162 134.778 267.162ZM148.982 267.162C148.226 267.162 147.548 267.036 146.948 266.784C146.348 266.52 145.874 266.16 145.526 265.704C145.178 265.236 144.986 264.702 144.95 264.102H146.642C146.69 264.594 146.918 264.996 147.326 265.308C147.746 265.62 148.292 265.776 148.964 265.776C149.588 265.776 150.08 265.638 150.44 265.362C150.8 265.086 150.98 264.738 150.98 264.318C150.98 263.886 150.788 263.568 150.404 263.364C150.02 263.148 149.426 262.938 148.622 262.734C147.89 262.542 147.29 262.35 146.822 262.158C146.366 261.954 145.97 261.66 145.634 261.276C145.31 260.88 145.148 260.364 145.148 259.728C145.148 259.224 145.298 258.762 145.598 258.342C145.898 257.922 146.324 257.592 146.876 257.352C147.428 257.1 148.058 256.974 148.766 256.974C149.858 256.974 150.74 257.25 151.412 257.802C152.084 258.354 152.444 259.11 152.492 260.07H150.854C150.818 259.554 150.608 259.14 150.224 258.828C149.852 258.516 149.348 258.36 148.712 258.36C148.124 258.36 147.656 258.486 147.308 258.738C146.96 258.99 146.786 259.32 146.786 259.728C146.786 260.052 146.888 260.322 147.092 260.538C147.308 260.742 147.572 260.91 147.884 261.042C148.208 261.162 148.652 261.3 149.216 261.456C149.924 261.648 150.5 261.84 150.944 262.032C151.388 262.212 151.766 262.488 152.078 262.86C152.402 263.232 152.57 263.718 152.582 264.318C152.582 264.858 152.432 265.344 152.132 265.776C151.832 266.208 151.406 266.55 150.854 266.802C150.314 267.042 149.69 267.162 148.982 267.162ZM163.894 261.69C163.894 262.002 163.876 262.332 163.84 262.68H155.956C156.016 263.652 156.346 264.414 156.946 264.966C157.558 265.506 158.296 265.776 159.16 265.776C159.868 265.776 160.456 265.614 160.924 265.29C161.404 264.954 161.74 264.51 161.932 263.958H163.696C163.432 264.906 162.904 265.68 162.112 266.28C161.32 266.868 160.336 267.162 159.16 267.162C158.224 267.162 157.384 266.952 156.64 266.532C155.908 266.112 155.332 265.518 154.912 264.75C154.492 263.97 154.282 263.07 154.282 262.05C154.282 261.03 154.486 260.136 154.894 259.368C155.302 258.6 155.872 258.012 156.604 257.604C157.348 257.184 158.2 256.974 159.16 256.974C160.096 256.974 160.924 257.178 161.644 257.586C162.364 257.994 162.916 258.558 163.3 259.278C163.696 259.986 163.894 260.79 163.894 261.69ZM162.202 261.348C162.202 260.724 162.064 260.19 161.788 259.746C161.512 259.29 161.134 258.948 160.654 258.72C160.186 258.48 159.664 258.36 159.088 258.36C158.26 258.36 157.552 258.624 156.964 259.152C156.388 259.68 156.058 260.412 155.974 261.348H162.202ZM179.855 261.69C179.855 262.002 179.837 262.332 179.801 262.68H171.917C171.977 263.652 172.307 264.414 172.907 264.966C173.519 265.506 174.257 265.776 175.121 265.776C175.829 265.776 176.417 265.614 176.885 265.29C177.365 264.954 177.701 264.51 177.893 263.958H179.657C179.393 264.906 178.865 265.68 178.073 266.28C177.281 266.868 176.297 267.162 175.121 267.162C174.185 267.162 173.345 266.952 172.601 266.532C171.869 266.112 171.293 265.518 170.873 264.75C170.453 263.97 170.243 263.07 170.243 262.05C170.243 261.03 170.447 260.136 170.855 259.368C171.263 258.6 171.833 258.012 172.565 257.604C173.309 257.184 174.161 256.974 175.121 256.974C176.057 256.974 176.885 257.178 177.605 257.586C178.325 257.994 178.877 258.558 179.261 259.278C179.657 259.986 179.855 260.79 179.855 261.69ZM178.163 261.348C178.163 260.724 178.025 260.19 177.749 259.746C177.473 259.29 177.095 258.948 176.615 258.72C176.147 258.48 175.625 258.36 175.049 258.36C174.221 258.36 173.513 258.624 172.925 259.152C172.349 259.68 172.019 260.412 171.935 261.348H178.163ZM185.509 267.162C184.753 267.162 184.075 267.036 183.475 266.784C182.875 266.52 182.401 266.16 182.053 265.704C181.705 265.236 181.513 264.702 181.477 264.102H183.169C183.217 264.594 183.445 264.996 183.853 265.308C184.273 265.62 184.819 265.776 185.491 265.776C186.115 265.776 186.607 265.638 186.967 265.362C187.327 265.086 187.507 264.738 187.507 264.318C187.507 263.886 187.315 263.568 186.931 263.364C186.547 263.148 185.953 262.938 185.149 262.734C184.417 262.542 183.817 262.35 183.349 262.158C182.893 261.954 182.497 261.66 182.161 261.276C181.837 260.88 181.675 260.364 181.675 259.728C181.675 259.224 181.825 258.762 182.125 258.342C182.425 257.922 182.851 257.592 183.403 257.352C183.955 257.1 184.585 256.974 185.293 256.974C186.385 256.974 187.267 257.25 187.939 257.802C188.611 258.354 188.971 259.11 189.019 260.07H187.381C187.345 259.554 187.135 259.14 186.751 258.828C186.379 258.516 185.875 258.36 185.239 258.36C184.651 258.36 184.183 258.486 183.835 258.738C183.487 258.99 183.313 259.32 183.313 259.728C183.313 260.052 183.415 260.322 183.619 260.538C183.835 260.742 184.099 260.91 184.411 261.042C184.735 261.162 185.179 261.3 185.743 261.456C186.451 261.648 187.027 261.84 187.471 262.032C187.915 262.212 188.293 262.488 188.605 262.86C188.929 263.232 189.097 263.718 189.109 264.318C189.109 264.858 188.959 265.344 188.659 265.776C188.359 266.208 187.933 266.55 187.381 266.802C186.841 267.042 186.217 267.162 185.509 267.162ZM190.809 262.032C190.809 261.024 191.013 260.142 191.421 259.386C191.829 258.618 192.387 258.024 193.095 257.604C193.815 257.184 194.619 256.974 195.507 256.974C196.359 256.974 197.103 257.166 197.739 257.55C198.387 257.922 198.861 258.384 199.161 258.936V257.136H200.817V271.68H199.161V265.182C198.849 265.734 198.369 266.202 197.721 266.586C197.073 266.97 196.317 267.162 195.453 267.162C194.589 267.162 193.803 266.946 193.095 266.514C192.387 266.082 191.829 265.476 191.421 264.696C191.013 263.916 190.809 263.028 190.809 262.032ZM199.161 262.05C199.161 261.306 199.011 260.658 198.711 260.106C198.411 259.554 198.003 259.134 197.487 258.846C196.983 258.546 196.425 258.396 195.813 258.396C195.201 258.396 194.643 258.54 194.139 258.828C193.635 259.116 193.233 259.536 192.933 260.088C192.633 260.64 192.483 261.288 192.483 262.032C192.483 262.788 192.633 263.448 192.933 264.012C193.233 264.564 193.635 264.99 194.139 265.29C194.643 265.578 195.201 265.722 195.813 265.722C196.425 265.722 196.983 265.578 197.487 265.29C198.003 264.99 198.411 264.564 198.711 264.012C199.011 263.448 199.161 262.794 199.161 262.05ZM212.333 257.136V267H210.695V265.542C210.383 266.046 209.945 266.442 209.381 266.73C208.829 267.006 208.217 267.144 207.545 267.144C206.777 267.144 206.087 266.988 205.475 266.676C204.863 266.352 204.377 265.872 204.017 265.236C203.669 264.6 203.495 263.826 203.495 262.914V257.136H205.115V262.698C205.115 263.67 205.361 264.42 205.853 264.948C206.345 265.464 207.017 265.722 207.869 265.722C208.745 265.722 209.435 265.452 209.939 264.912C210.443 264.372 210.695 263.586 210.695 262.554V257.136H212.333ZM224.099 261.69C224.099 262.002 224.081 262.332 224.045 262.68H216.161C216.221 263.652 216.551 264.414 217.151 264.966C217.763 265.506 218.501 265.776 219.365 265.776C220.073 265.776 220.661 265.614 221.129 265.29C221.609 264.954 221.945 264.51 222.137 263.958H223.901C223.637 264.906 223.109 265.68 222.317 266.28C221.525 266.868 220.541 267.162 219.365 267.162C218.429 267.162 217.589 266.952 216.845 266.532C216.113 266.112 215.537 265.518 215.117 264.75C214.697 263.97 214.487 263.07 214.487 262.05C214.487 261.03 214.691 260.136 215.099 259.368C215.507 258.6 216.077 258.012 216.809 257.604C217.553 257.184 218.405 256.974 219.365 256.974C220.301 256.974 221.129 257.178 221.849 257.586C222.569 257.994 223.121 258.558 223.505 259.278C223.901 259.986 224.099 260.79 224.099 261.69ZM222.407 261.348C222.407 260.724 222.269 260.19 221.993 259.746C221.717 259.29 221.339 258.948 220.859 258.72C220.391 258.48 219.869 258.36 219.293 258.36C218.465 258.36 217.757 258.624 217.169 259.152C216.593 259.68 216.263 260.412 216.179 261.348H222.407ZM230.455 265.776C231.175 265.776 231.775 265.608 232.255 265.272C232.735 264.936 233.065 264.456 233.245 263.832H235.009C234.769 264.768 234.295 265.536 233.587 266.136C232.891 266.724 232.015 267.06 230.959 267.144V268.044C231.667 268.032 232.231 268.182 232.651 268.494C233.071 268.806 233.281 269.25 233.281 269.826C233.281 270.39 233.077 270.84 232.669 271.176C232.261 271.512 231.733 271.68 231.085 271.68H229.015V270.618H230.761C231.157 270.618 231.445 270.558 231.625 270.438C231.817 270.318 231.913 270.114 231.913 269.826C231.913 269.55 231.817 269.352 231.625 269.232C231.445 269.112 231.157 269.052 230.761 269.052H229.861V267.126C229.033 267.042 228.301 266.784 227.665 266.352C227.029 265.908 226.531 265.32 226.171 264.588C225.823 263.844 225.649 262.998 225.649 262.05C225.649 261.03 225.853 260.142 226.261 259.386C226.669 258.618 227.233 258.024 227.953 257.604C228.685 257.184 229.519 256.974 230.455 256.974C231.667 256.974 232.663 257.268 233.443 257.856C234.235 258.444 234.757 259.26 235.009 260.304H233.245C233.077 259.704 232.747 259.23 232.255 258.882C231.775 258.534 231.175 258.36 230.455 258.36C229.519 258.36 228.763 258.684 228.187 259.332C227.611 259.968 227.323 260.874 227.323 262.05C227.323 263.238 227.611 264.156 228.187 264.804C228.763 265.452 229.519 265.776 230.455 265.776ZM236.583 262.032C236.583 261.024 236.787 260.142 237.195 259.386C237.603 258.618 238.161 258.024 238.869 257.604C239.589 257.184 240.387 256.974 241.263 256.974C242.127 256.974 242.877 257.16 243.513 257.532C244.149 257.904 244.623 258.372 244.935 258.936V257.136H246.591V267H244.935V265.164C244.611 265.74 244.125 266.22 243.477 266.604C242.841 266.976 242.097 267.162 241.245 267.162C240.369 267.162 239.577 266.946 238.869 266.514C238.161 266.082 237.603 265.476 237.195 264.696C236.787 263.916 236.583 263.028 236.583 262.032ZM244.935 262.05C244.935 261.306 244.785 260.658 244.485 260.106C244.185 259.554 243.777 259.134 243.261 258.846C242.757 258.546 242.199 258.396 241.587 258.396C240.975 258.396 240.417 258.54 239.913 258.828C239.409 259.116 239.007 259.536 238.707 260.088C238.407 260.64 238.257 261.288 238.257 262.032C238.257 262.788 238.407 263.448 238.707 264.012C239.007 264.564 239.409 264.99 239.913 265.29C240.417 265.578 240.975 265.722 241.587 265.722C242.199 265.722 242.757 265.578 243.261 265.29C243.777 264.99 244.185 264.564 244.485 264.012C244.785 263.448 244.935 262.794 244.935 262.05ZM253.545 262.032C253.545 261.024 253.749 260.142 254.157 259.386C254.565 258.618 255.123 258.024 255.831 257.604C256.551 257.184 257.355 256.974 258.243 256.974C259.011 256.974 259.725 257.154 260.385 257.514C261.045 257.862 261.549 258.324 261.897 258.9V253.68H263.553V267H261.897V265.146C261.573 265.734 261.093 266.22 260.457 266.604C259.821 266.976 259.077 267.162 258.225 267.162C257.349 267.162 256.551 266.946 255.831 266.514C255.123 266.082 254.565 265.476 254.157 264.696C253.749 263.916 253.545 263.028 253.545 262.032ZM261.897 262.05C261.897 261.306 261.747 260.658 261.447 260.106C261.147 259.554 260.739 259.134 260.223 258.846C259.719 258.546 259.161 258.396 258.549 258.396C257.937 258.396 257.379 258.54 256.875 258.828C256.371 259.116 255.969 259.536 255.669 260.088C255.369 260.64 255.219 261.288 255.219 262.032C255.219 262.788 255.369 263.448 255.669 264.012C255.969 264.564 256.371 264.99 256.875 265.29C257.379 265.578 257.937 265.722 258.549 265.722C259.161 265.722 259.719 265.578 260.223 265.29C260.739 264.99 261.147 264.564 261.447 264.012C261.747 263.448 261.897 262.794 261.897 262.05ZM270.624 267.162C269.7 267.162 268.86 266.952 268.104 266.532C267.36 266.112 266.772 265.518 266.34 264.75C265.92 263.97 265.71 263.07 265.71 262.05C265.71 261.042 265.926 260.154 266.358 259.386C266.802 258.606 267.402 258.012 268.158 257.604C268.914 257.184 269.76 256.974 270.696 256.974C271.632 256.974 272.478 257.184 273.234 257.604C273.99 258.012 274.584 258.6 275.016 259.368C275.46 260.136 275.682 261.03 275.682 262.05C275.682 263.07 275.454 263.97 274.998 264.75C274.554 265.518 273.948 266.112 273.18 266.532C272.412 266.952 271.56 267.162 270.624 267.162ZM270.624 265.722C271.212 265.722 271.764 265.584 272.28 265.308C272.796 265.032 273.21 264.618 273.522 264.066C273.846 263.514 274.008 262.842 274.008 262.05C274.008 261.258 273.852 260.586 273.54 260.034C273.228 259.482 272.82 259.074 272.316 258.81C271.812 258.534 271.266 258.396 270.678 258.396C270.078 258.396 269.526 258.534 269.022 258.81C268.53 259.074 268.134 259.482 267.834 260.034C267.534 260.586 267.384 261.258 267.384 262.05C267.384 262.854 267.528 263.532 267.816 264.084C268.116 264.636 268.512 265.05 269.004 265.326C269.496 265.59 270.036 265.722 270.624 265.722ZM282.022 262.032C282.022 261.024 282.226 260.142 282.634 259.386C283.042 258.618 283.6 258.024 284.308 257.604C285.028 257.184 285.826 256.974 286.702 256.974C287.566 256.974 288.316 257.16 288.952 257.532C289.588 257.904 290.062 258.372 290.374 258.936V257.136H292.03V267H290.374V265.164C290.05 265.74 289.564 266.22 288.916 266.604C288.28 266.976 287.536 267.162 286.684 267.162C285.808 267.162 285.016 266.946 284.308 266.514C283.6 266.082 283.042 265.476 282.634 264.696C282.226 263.916 282.022 263.028 282.022 262.032ZM290.374 262.05C290.374 261.306 290.224 260.658 289.924 260.106C289.624 259.554 289.216 259.134 288.7 258.846C288.196 258.546 287.638 258.396 287.026 258.396C286.414 258.396 285.856 258.54 285.352 258.828C284.848 259.116 284.446 259.536 284.146 260.088C283.846 260.64 283.696 261.288 283.696 262.032C283.696 262.788 283.846 263.448 284.146 264.012C284.446 264.564 284.848 264.99 285.352 265.29C285.856 265.578 286.414 265.722 287.026 265.722C287.638 265.722 288.196 265.578 288.7 265.29C289.216 264.99 289.624 264.564 289.924 264.012C290.224 263.448 290.374 262.794 290.374 262.05ZM299.604 256.956C300.804 256.956 301.776 257.322 302.52 258.054C303.264 258.774 303.636 259.818 303.636 261.186V267H302.016V261.42C302.016 260.436 301.77 259.686 301.278 259.17C300.786 258.642 300.114 258.378 299.262 258.378C298.398 258.378 297.708 258.648 297.192 259.188C296.688 259.728 296.436 260.514 296.436 261.546V267H294.798V257.136H296.436V258.54C296.76 258.036 297.198 257.646 297.75 257.37C298.314 257.094 298.932 256.956 299.604 256.956ZM307.158 255.534C306.846 255.534 306.582 255.426 306.366 255.21C306.15 254.994 306.042 254.73 306.042 254.418C306.042 254.106 306.15 253.842 306.366 253.626C306.582 253.41 306.846 253.302 307.158 253.302C307.458 253.302 307.71 253.41 307.914 253.626C308.13 253.842 308.238 254.106 308.238 254.418C308.238 254.73 308.13 254.994 307.914 255.21C307.71 255.426 307.458 255.534 307.158 255.534ZM307.95 257.136V267H306.312V257.136H307.95ZM314.413 265.488L317.473 257.136H319.219L315.349 267H313.441L309.571 257.136H311.335L314.413 265.488ZM329.831 261.69C329.831 262.002 329.813 262.332 329.777 262.68H321.893C321.953 263.652 322.283 264.414 322.883 264.966C323.495 265.506 324.233 265.776 325.097 265.776C325.805 265.776 326.393 265.614 326.861 265.29C327.341 264.954 327.677 264.51 327.869 263.958H329.633C329.369 264.906 328.841 265.68 328.049 266.28C327.257 266.868 326.273 267.162 325.097 267.162C324.161 267.162 323.321 266.952 322.577 266.532C321.845 266.112 321.269 265.518 320.849 264.75C320.429 263.97 320.219 263.07 320.219 262.05C320.219 261.03 320.423 260.136 320.831 259.368C321.239 258.6 321.809 258.012 322.541 257.604C323.285 257.184 324.137 256.974 325.097 256.974C326.033 256.974 326.861 257.178 327.581 257.586C328.301 257.994 328.853 258.558 329.237 259.278C329.633 259.986 329.831 260.79 329.831 261.69ZM328.139 261.348C328.139 260.724 328.001 260.19 327.725 259.746C327.449 259.29 327.071 258.948 326.591 258.72C326.123 258.48 325.601 258.36 325.025 258.36C324.197 258.36 323.489 258.624 322.901 259.152C322.325 259.68 321.995 260.412 321.911 261.348H328.139ZM333.631 258.738C333.919 258.174 334.327 257.736 334.855 257.424C335.395 257.112 336.049 256.956 336.817 256.956V258.648H336.385C334.549 258.648 333.631 259.644 333.631 261.636V267H331.993V257.136H333.631V258.738ZM342.2 267.162C341.444 267.162 340.766 267.036 340.166 266.784C339.566 266.52 339.092 266.16 338.744 265.704C338.396 265.236 338.204 264.702 338.168 264.102H339.86C339.908 264.594 340.136 264.996 340.544 265.308C340.964 265.62 341.51 265.776 342.182 265.776C342.806 265.776 343.298 265.638 343.658 265.362C344.018 265.086 344.198 264.738 344.198 264.318C344.198 263.886 344.006 263.568 343.622 263.364C343.238 263.148 342.644 262.938 341.84 262.734C341.108 262.542 340.508 262.35 340.04 262.158C339.584 261.954 339.188 261.66 338.852 261.276C338.528 260.88 338.366 260.364 338.366 259.728C338.366 259.224 338.516 258.762 338.816 258.342C339.116 257.922 339.542 257.592 340.094 257.352C340.646 257.1 341.276 256.974 341.984 256.974C343.076 256.974 343.958 257.25 344.63 257.802C345.302 258.354 345.662 259.11 345.71 260.07H344.072C344.036 259.554 343.826 259.14 343.442 258.828C343.07 258.516 342.566 258.36 341.93 258.36C341.342 258.36 340.874 258.486 340.526 258.738C340.178 258.99 340.004 259.32 340.004 259.728C340.004 260.052 340.106 260.322 340.31 260.538C340.526 260.742 340.79 260.91 341.102 261.042C341.426 261.162 341.87 261.3 342.434 261.456C343.142 261.648 343.718 261.84 344.162 262.032C344.606 262.212 344.984 262.488 345.296 262.86C345.62 263.232 345.788 263.718 345.8 264.318C345.8 264.858 345.65 265.344 345.35 265.776C345.05 266.208 344.624 266.55 344.072 266.802C343.532 267.042 342.908 267.162 342.2 267.162ZM347.501 262.032C347.501 261.024 347.705 260.142 348.113 259.386C348.521 258.618 349.079 258.024 349.787 257.604C350.507 257.184 351.305 256.974 352.181 256.974C353.045 256.974 353.795 257.16 354.431 257.532C355.067 257.904 355.541 258.372 355.853 258.936V257.136H357.509V267H355.853V265.164C355.529 265.74 355.043 266.22 354.395 266.604C353.759 266.976 353.015 267.162 352.163 267.162C351.287 267.162 350.495 266.946 349.787 266.514C349.079 266.082 348.521 265.476 348.113 264.696C347.705 263.916 347.501 263.028 347.501 262.032ZM355.853 262.05C355.853 261.306 355.703 260.658 355.403 260.106C355.103 259.554 354.695 259.134 354.179 258.846C353.675 258.546 353.117 258.396 352.505 258.396C351.893 258.396 351.335 258.54 350.831 258.828C350.327 259.116 349.925 259.536 349.625 260.088C349.325 260.64 349.175 261.288 349.175 262.032C349.175 262.788 349.325 263.448 349.625 264.012C349.925 264.564 350.327 264.99 350.831 265.29C351.335 265.578 351.893 265.722 352.505 265.722C353.117 265.722 353.675 265.578 354.179 265.29C354.695 264.99 355.103 264.564 355.403 264.012C355.703 263.448 355.853 262.794 355.853 262.05ZM354.575 254.346L350.741 256.398V255.174L354.575 252.924V254.346ZM361.915 258.738C362.203 258.174 362.611 257.736 363.139 257.424C363.679 257.112 364.333 256.956 365.101 256.956V258.648H364.669C362.833 258.648 361.915 259.644 361.915 261.636V267H360.277V257.136H361.915V258.738ZM367.837 255.534C367.525 255.534 367.261 255.426 367.045 255.21C366.829 254.994 366.721 254.73 366.721 254.418C366.721 254.106 366.829 253.842 367.045 253.626C367.261 253.41 367.525 253.302 367.837 253.302C368.137 253.302 368.389 253.41 368.593 253.626C368.809 253.842 368.917 254.106 368.917 254.418C368.917 254.73 368.809 254.994 368.593 255.21C368.389 255.426 368.137 255.534 367.837 255.534ZM368.629 257.136V267H366.991V257.136H368.629ZM375.723 267.162C374.799 267.162 373.959 266.952 373.203 266.532C372.459 266.112 371.871 265.518 371.439 264.75C371.019 263.97 370.809 263.07 370.809 262.05C370.809 261.042 371.025 260.154 371.457 259.386C371.901 258.606 372.501 258.012 373.257 257.604C374.013 257.184 374.859 256.974 375.795 256.974C376.731 256.974 377.577 257.184 378.333 257.604C379.089 258.012 379.683 258.6 380.115 259.368C380.559 260.136 380.781 261.03 380.781 262.05C380.781 263.07 380.553 263.97 380.097 264.75C379.653 265.518 379.047 266.112 378.279 266.532C377.511 266.952 376.659 267.162 375.723 267.162ZM375.723 265.722C376.311 265.722 376.863 265.584 377.379 265.308C377.895 265.032 378.309 264.618 378.621 264.066C378.945 263.514 379.107 262.842 379.107 262.05C379.107 261.258 378.951 260.586 378.639 260.034C378.327 259.482 377.919 259.074 377.415 258.81C376.911 258.534 376.365 258.396 375.777 258.396C375.177 258.396 374.625 258.534 374.121 258.81C373.629 259.074 373.233 259.482 372.933 260.034C372.633 260.586 372.483 261.258 372.483 262.05C372.483 262.854 372.627 263.532 372.915 264.084C373.215 264.636 373.611 265.05 374.103 265.326C374.595 265.59 375.135 265.722 375.723 265.722ZM387.122 262.032C387.122 261.024 387.326 260.142 387.734 259.386C388.142 258.618 388.7 258.024 389.408 257.604C390.128 257.184 390.932 256.974 391.82 256.974C392.588 256.974 393.302 257.154 393.962 257.514C394.622 257.862 395.126 258.324 395.474 258.9V253.68H397.13V267H395.474V265.146C395.15 265.734 394.67 266.22 394.034 266.604C393.398 266.976 392.654 267.162 391.802 267.162C390.926 267.162 390.128 266.946 389.408 266.514C388.7 266.082 388.142 265.476 387.734 264.696C387.326 263.916 387.122 263.028 387.122 262.032ZM395.474 262.05C395.474 261.306 395.324 260.658 395.024 260.106C394.724 259.554 394.316 259.134 393.8 258.846C393.296 258.546 392.738 258.396 392.126 258.396C391.514 258.396 390.956 258.54 390.452 258.828C389.948 259.116 389.546 259.536 389.246 260.088C388.946 260.64 388.796 261.288 388.796 262.032C388.796 262.788 388.946 263.448 389.246 264.012C389.546 264.564 389.948 264.99 390.452 265.29C390.956 265.578 391.514 265.722 392.126 265.722C392.738 265.722 393.296 265.578 393.8 265.29C394.316 264.99 394.724 264.564 395.024 264.012C395.324 263.448 395.474 262.794 395.474 262.05ZM408.898 261.69C408.898 262.002 408.88 262.332 408.844 262.68H400.96C401.02 263.652 401.35 264.414 401.95 264.966C402.562 265.506 403.3 265.776 404.164 265.776C404.872 265.776 405.46 265.614 405.928 265.29C406.408 264.954 406.744 264.51 406.936 263.958H408.7C408.436 264.906 407.908 265.68 407.116 266.28C406.324 266.868 405.34 267.162 404.164 267.162C403.228 267.162 402.388 266.952 401.644 266.532C400.912 266.112 400.336 265.518 399.916 264.75C399.496 263.97 399.286 263.07 399.286 262.05C399.286 261.03 399.49 260.136 399.898 259.368C400.306 258.6 400.876 258.012 401.608 257.604C402.352 257.184 403.204 256.974 404.164 256.974C405.1 256.974 405.928 257.178 406.648 257.586C407.368 257.994 407.92 258.558 408.304 259.278C408.7 259.986 408.898 260.79 408.898 261.69ZM407.206 261.348C407.206 260.724 407.068 260.19 406.792 259.746C406.516 259.29 406.138 258.948 405.658 258.72C405.19 258.48 404.668 258.36 404.092 258.36C403.264 258.36 402.556 258.624 401.968 259.152C401.392 259.68 401.062 260.412 400.978 261.348H407.206ZM415.247 262.032C415.247 261.024 415.451 260.142 415.859 259.386C416.267 258.618 416.825 258.024 417.533 257.604C418.253 257.184 419.057 256.974 419.945 256.974C420.797 256.974 421.541 257.166 422.177 257.55C422.825 257.922 423.299 258.384 423.599 258.936V257.136H425.255V271.68H423.599V265.182C423.287 265.734 422.807 266.202 422.159 266.586C421.511 266.97 420.755 267.162 419.891 267.162C419.027 267.162 418.241 266.946 417.533 266.514C416.825 266.082 416.267 265.476 415.859 264.696C415.451 263.916 415.247 263.028 415.247 262.032ZM423.599 262.05C423.599 261.306 423.449 260.658 423.149 260.106C422.849 259.554 422.441 259.134 421.925 258.846C421.421 258.546 420.863 258.396 420.251 258.396C419.639 258.396 419.081 258.54 418.577 258.828C418.073 259.116 417.671 259.536 417.371 260.088C417.071 260.64 416.921 261.288 416.921 262.032C416.921 262.788 417.071 263.448 417.371 264.012C417.671 264.564 418.073 264.99 418.577 265.29C419.081 265.578 419.639 265.722 420.251 265.722C420.863 265.722 421.421 265.578 421.925 265.29C422.441 264.99 422.849 264.564 423.149 264.012C423.449 263.448 423.599 262.794 423.599 262.05ZM436.771 257.136V267H435.133V265.542C434.821 266.046 434.383 266.442 433.819 266.73C433.267 267.006 432.655 267.144 431.983 267.144C431.215 267.144 430.525 266.988 429.913 266.676C429.301 266.352 428.815 265.872 428.455 265.236C428.107 264.6 427.933 263.826 427.933 262.914V257.136H429.553V262.698C429.553 263.67 429.799 264.42 430.291 264.948C430.783 265.464 431.455 265.722 432.307 265.722C433.183 265.722 433.873 265.452 434.377 264.912C434.881 264.372 435.133 263.586 435.133 262.554V257.136H436.771ZM448.536 261.69C448.536 262.002 448.518 262.332 448.482 262.68H440.598C440.658 263.652 440.988 264.414 441.588 264.966C442.2 265.506 442.938 265.776 443.802 265.776C444.51 265.776 445.098 265.614 445.566 265.29C446.046 264.954 446.382 264.51 446.574 263.958H448.338C448.074 264.906 447.546 265.68 446.754 266.28C445.962 266.868 444.978 267.162 443.802 267.162C442.866 267.162 442.026 266.952 441.282 266.532C440.55 266.112 439.974 265.518 439.554 264.75C439.134 263.97 438.924 263.07 438.924 262.05C438.924 261.03 439.128 260.136 439.536 259.368C439.944 258.6 440.514 258.012 441.246 257.604C441.99 257.184 442.842 256.974 443.802 256.974C444.738 256.974 445.566 257.178 446.286 257.586C447.006 257.994 447.558 258.558 447.942 259.278C448.338 259.986 448.536 260.79 448.536 261.69ZM446.844 261.348C446.844 260.724 446.706 260.19 446.43 259.746C446.154 259.29 445.776 258.948 445.296 258.72C444.828 258.48 444.306 258.36 443.73 258.36C442.902 258.36 442.194 258.624 441.606 259.152C441.03 259.68 440.7 260.412 440.616 261.348H446.844ZM462.561 256.956C463.329 256.956 464.013 257.118 464.613 257.442C465.213 257.754 465.687 258.228 466.035 258.864C466.383 259.5 466.557 260.274 466.557 261.186V267H464.937V261.42C464.937 260.436 464.691 259.686 464.199 259.17C463.719 258.642 463.065 258.378 462.237 258.378C461.385 258.378 460.707 258.654 460.203 259.206C459.699 259.746 459.447 260.532 459.447 261.564V267H457.827V261.42C457.827 260.436 457.581 259.686 457.089 259.17C456.609 258.642 455.955 258.378 455.127 258.378C454.275 258.378 453.597 258.654 453.093 259.206C452.589 259.746 452.337 260.532 452.337 261.564V267H450.699V257.136H452.337V258.558C452.661 258.042 453.093 257.646 453.633 257.37C454.185 257.094 454.791 256.956 455.451 256.956C456.279 256.956 457.011 257.142 457.647 257.514C458.283 257.886 458.757 258.432 459.069 259.152C459.345 258.456 459.801 257.916 460.437 257.532C461.073 257.148 461.781 256.956 462.561 256.956ZM483.042 261.69C483.042 262.002 483.024 262.332 482.988 262.68H475.104C475.164 263.652 475.494 264.414 476.094 264.966C476.706 265.506 477.444 265.776 478.308 265.776C479.016 265.776 479.604 265.614 480.072 265.29C480.552 264.954 480.888 264.51 481.08 263.958H482.844C482.58 264.906 482.052 265.68 481.26 266.28C480.468 266.868 479.484 267.162 478.308 267.162C477.372 267.162 476.532 266.952 475.788 266.532C475.056 266.112 474.48 265.518 474.06 264.75C473.64 263.97 473.43 263.07 473.43 262.05C473.43 261.03 473.634 260.136 474.042 259.368C474.45 258.6 475.02 258.012 475.752 257.604C476.496 257.184 477.348 256.974 478.308 256.974C479.244 256.974 480.072 257.178 480.792 257.586C481.512 257.994 482.064 258.558 482.448 259.278C482.844 259.986 483.042 260.79 483.042 261.69ZM481.35 261.348C481.35 260.724 481.212 260.19 480.936 259.746C480.66 259.29 480.282 258.948 479.802 258.72C479.334 258.48 478.812 258.36 478.236 258.36C477.408 258.36 476.7 258.624 476.112 259.152C475.536 259.68 475.206 260.412 475.122 261.348H481.35ZM480 254.346L476.166 256.398V255.174L480 252.924V254.346ZM151.961 282.534C151.649 282.534 151.385 282.426 151.169 282.21C150.953 281.994 150.845 281.73 150.845 281.418C150.845 281.106 150.953 280.842 151.169 280.626C151.385 280.41 151.649 280.302 151.961 280.302C152.261 280.302 152.513 280.41 152.717 280.626C152.933 280.842 153.041 281.106 153.041 281.418C153.041 281.73 152.933 281.994 152.717 282.21C152.513 282.426 152.261 282.534 151.961 282.534ZM152.753 284.136V294H151.115V284.136H152.753ZM167.406 283.956C168.174 283.956 168.858 284.118 169.458 284.442C170.058 284.754 170.532 285.228 170.88 285.864C171.228 286.5 171.402 287.274 171.402 288.186V294H169.782V288.42C169.782 287.436 169.536 286.686 169.044 286.17C168.564 285.642 167.91 285.378 167.082 285.378C166.23 285.378 165.552 285.654 165.048 286.206C164.544 286.746 164.292 287.532 164.292 288.564V294H162.672V288.42C162.672 287.436 162.426 286.686 161.934 286.17C161.454 285.642 160.8 285.378 159.972 285.378C159.12 285.378 158.442 285.654 157.938 286.206C157.434 286.746 157.182 287.532 157.182 288.564V294H155.544V284.136H157.182V285.558C157.506 285.042 157.938 284.646 158.478 284.37C159.03 284.094 159.636 283.956 160.296 283.956C161.124 283.956 161.856 284.142 162.492 284.514C163.128 284.886 163.602 285.432 163.914 286.152C164.19 285.456 164.646 284.916 165.282 284.532C165.918 284.148 166.626 283.956 167.406 283.956ZM175.727 285.954C176.051 285.39 176.531 284.922 177.167 284.55C177.815 284.166 178.565 283.974 179.417 283.974C180.293 283.974 181.085 284.184 181.793 284.604C182.513 285.024 183.077 285.618 183.485 286.386C183.893 287.142 184.097 288.024 184.097 289.032C184.097 290.028 183.893 290.916 183.485 291.696C183.077 292.476 182.513 293.082 181.793 293.514C181.085 293.946 180.293 294.162 179.417 294.162C178.577 294.162 177.833 293.976 177.185 293.604C176.549 293.22 176.063 292.746 175.727 292.182V298.68H174.089V284.136H175.727V285.954ZM182.423 289.032C182.423 288.288 182.273 287.64 181.973 287.088C181.673 286.536 181.265 286.116 180.749 285.828C180.245 285.54 179.687 285.396 179.075 285.396C178.475 285.396 177.917 285.546 177.401 285.846C176.897 286.134 176.489 286.56 176.177 287.124C175.877 287.676 175.727 288.318 175.727 289.05C175.727 289.794 175.877 290.448 176.177 291.012C176.489 291.564 176.897 291.99 177.401 292.29C177.917 292.578 178.475 292.722 179.075 292.722C179.687 292.722 180.245 292.578 180.749 292.29C181.265 291.99 181.673 291.564 181.973 291.012C182.273 290.448 182.423 289.788 182.423 289.032ZM190.555 294.162C189.631 294.162 188.791 293.952 188.035 293.532C187.291 293.112 186.703 292.518 186.271 291.75C185.851 290.97 185.641 290.07 185.641 289.05C185.641 288.042 185.857 287.154 186.289 286.386C186.733 285.606 187.333 285.012 188.089 284.604C188.845 284.184 189.691 283.974 190.627 283.974C191.563 283.974 192.409 284.184 193.165 284.604C193.921 285.012 194.515 285.6 194.947 286.368C195.391 287.136 195.613 288.03 195.613 289.05C195.613 290.07 195.385 290.97 194.929 291.75C194.485 292.518 193.879 293.112 193.111 293.532C192.343 293.952 191.491 294.162 190.555 294.162ZM190.555 292.722C191.143 292.722 191.695 292.584 192.211 292.308C192.727 292.032 193.141 291.618 193.453 291.066C193.777 290.514 193.939 289.842 193.939 289.05C193.939 288.258 193.783 287.586 193.471 287.034C193.159 286.482 192.751 286.074 192.247 285.81C191.743 285.534 191.197 285.396 190.609 285.396C190.009 285.396 189.457 285.534 188.953 285.81C188.461 286.074 188.065 286.482 187.765 287.034C187.465 287.586 187.315 288.258 187.315 289.05C187.315 289.854 187.459 290.532 187.747 291.084C188.047 291.636 188.443 292.05 188.935 292.326C189.427 292.59 189.967 292.722 190.555 292.722ZM199.405 285.738C199.693 285.174 200.101 284.736 200.629 284.424C201.169 284.112 201.823 283.956 202.591 283.956V285.648H202.159C200.323 285.648 199.405 286.644 199.405 288.636V294H197.767V284.136H199.405V285.738ZM206.48 285.486V291.3C206.48 291.78 206.582 292.122 206.786 292.326C206.99 292.518 207.344 292.614 207.848 292.614H209.054V294H207.578C206.666 294 205.982 293.79 205.526 293.37C205.07 292.95 204.842 292.26 204.842 291.3V285.486H203.564V284.136H204.842V281.652H206.48V284.136H209.054V285.486H206.48ZM210.426 289.032C210.426 288.024 210.63 287.142 211.038 286.386C211.446 285.618 212.004 285.024 212.712 284.604C213.432 284.184 214.23 283.974 215.106 283.974C215.97 283.974 216.72 284.16 217.356 284.532C217.992 284.904 218.466 285.372 218.778 285.936V284.136H220.434V294H218.778V292.164C218.454 292.74 217.968 293.22 217.32 293.604C216.684 293.976 215.94 294.162 215.088 294.162C214.212 294.162 213.42 293.946 212.712 293.514C212.004 293.082 211.446 292.476 211.038 291.696C210.63 290.916 210.426 290.028 210.426 289.032ZM218.778 289.05C218.778 288.306 218.628 287.658 218.328 287.106C218.028 286.554 217.62 286.134 217.104 285.846C216.6 285.546 216.042 285.396 215.43 285.396C214.818 285.396 214.26 285.54 213.756 285.828C213.252 286.116 212.85 286.536 212.55 287.088C212.25 287.64 212.1 288.288 212.1 289.032C212.1 289.788 212.25 290.448 212.55 291.012C212.85 291.564 213.252 291.99 213.756 292.29C214.26 292.578 214.818 292.722 215.43 292.722C216.042 292.722 216.6 292.578 217.104 292.29C217.62 291.99 218.028 291.564 218.328 291.012C218.628 290.448 218.778 289.794 218.778 289.05ZM228.008 283.956C229.208 283.956 230.18 284.322 230.924 285.054C231.668 285.774 232.04 286.818 232.04 288.186V294H230.42V288.42C230.42 287.436 230.174 286.686 229.682 286.17C229.19 285.642 228.518 285.378 227.666 285.378C226.802 285.378 226.112 285.648 225.596 286.188C225.092 286.728 224.84 287.514 224.84 288.546V294H223.202V284.136H224.84V285.54C225.164 285.036 225.602 284.646 226.154 284.37C226.718 284.094 227.336 283.956 228.008 283.956ZM236.714 285.486V291.3C236.714 291.78 236.816 292.122 237.02 292.326C237.224 292.518 237.578 292.614 238.082 292.614H239.288V294H237.812C236.9 294 236.216 293.79 235.76 293.37C235.304 292.95 235.076 292.26 235.076 291.3V285.486H233.798V284.136H235.076V281.652H236.714V284.136H239.288V285.486H236.714ZM250.273 288.69C250.273 289.002 250.255 289.332 250.219 289.68H242.335C242.395 290.652 242.725 291.414 243.325 291.966C243.937 292.506 244.675 292.776 245.539 292.776C246.247 292.776 246.835 292.614 247.303 292.29C247.783 291.954 248.119 291.51 248.311 290.958H250.075C249.811 291.906 249.283 292.68 248.491 293.28C247.699 293.868 246.715 294.162 245.539 294.162C244.603 294.162 243.763 293.952 243.019 293.532C242.287 293.112 241.711 292.518 241.291 291.75C240.871 290.97 240.661 290.07 240.661 289.05C240.661 288.03 240.865 287.136 241.273 286.368C241.681 285.6 242.251 285.012 242.983 284.604C243.727 284.184 244.579 283.974 245.539 283.974C246.475 283.974 247.303 284.178 248.023 284.586C248.743 284.994 249.295 285.558 249.679 286.278C250.075 286.986 250.273 287.79 250.273 288.69ZM248.581 288.348C248.581 287.724 248.443 287.19 248.167 286.746C247.891 286.29 247.513 285.948 247.033 285.72C246.565 285.48 246.043 285.36 245.467 285.36C244.639 285.36 243.931 285.624 243.343 286.152C242.767 286.68 242.437 287.412 242.353 288.348H248.581ZM258.872 285.954C259.196 285.39 259.676 284.922 260.312 284.55C260.96 284.166 261.71 283.974 262.562 283.974C263.438 283.974 264.23 284.184 264.938 284.604C265.658 285.024 266.222 285.618 266.63 286.386C267.038 287.142 267.242 288.024 267.242 289.032C267.242 290.028 267.038 290.916 266.63 291.696C266.222 292.476 265.658 293.082 264.938 293.514C264.23 293.946 263.438 294.162 262.562 294.162C261.722 294.162 260.978 293.976 260.33 293.604C259.694 293.22 259.208 292.746 258.872 292.182V298.68H257.234V284.136H258.872V285.954ZM265.568 289.032C265.568 288.288 265.418 287.64 265.118 287.088C264.818 286.536 264.41 286.116 263.894 285.828C263.39 285.54 262.832 285.396 262.22 285.396C261.62 285.396 261.062 285.546 260.546 285.846C260.042 286.134 259.634 286.56 259.322 287.124C259.022 287.676 258.872 288.318 258.872 289.05C258.872 289.794 259.022 290.448 259.322 291.012C259.634 291.564 260.042 291.99 260.546 292.29C261.062 292.578 261.62 292.722 262.22 292.722C262.832 292.722 263.39 292.578 263.894 292.29C264.41 291.99 264.818 291.564 265.118 291.012C265.418 290.448 265.568 289.788 265.568 289.032ZM268.786 289.032C268.786 288.024 268.99 287.142 269.398 286.386C269.806 285.618 270.364 285.024 271.072 284.604C271.792 284.184 272.59 283.974 273.466 283.974C274.33 283.974 275.08 284.16 275.716 284.532C276.352 284.904 276.826 285.372 277.138 285.936V284.136H278.794V294H277.138V292.164C276.814 292.74 276.328 293.22 275.68 293.604C275.044 293.976 274.3 294.162 273.448 294.162C272.572 294.162 271.78 293.946 271.072 293.514C270.364 293.082 269.806 292.476 269.398 291.696C268.99 290.916 268.786 290.028 268.786 289.032ZM277.138 289.05C277.138 288.306 276.988 287.658 276.688 287.106C276.388 286.554 275.98 286.134 275.464 285.846C274.96 285.546 274.402 285.396 273.79 285.396C273.178 285.396 272.62 285.54 272.116 285.828C271.612 286.116 271.21 286.536 270.91 287.088C270.61 287.64 270.46 288.288 270.46 289.032C270.46 289.788 270.61 290.448 270.91 291.012C271.21 291.564 271.612 291.99 272.116 292.29C272.62 292.578 273.178 292.722 273.79 292.722C274.402 292.722 274.96 292.578 275.464 292.29C275.98 291.99 276.388 291.564 276.688 291.012C276.988 290.448 277.138 289.794 277.138 289.05ZM283.2 285.738C283.488 285.174 283.896 284.736 284.424 284.424C284.964 284.112 285.618 283.956 286.386 283.956V285.648H285.954C284.118 285.648 283.2 286.644 283.2 288.636V294H281.562V284.136H283.2V285.738ZM287.665 289.032C287.665 288.024 287.869 287.142 288.277 286.386C288.685 285.618 289.243 285.024 289.951 284.604C290.671 284.184 291.469 283.974 292.345 283.974C293.209 283.974 293.959 284.16 294.595 284.532C295.231 284.904 295.705 285.372 296.017 285.936V284.136H297.673V294H296.017V292.164C295.693 292.74 295.207 293.22 294.559 293.604C293.923 293.976 293.179 294.162 292.327 294.162C291.451 294.162 290.659 293.946 289.951 293.514C289.243 293.082 288.685 292.476 288.277 291.696C287.869 290.916 287.665 290.028 287.665 289.032ZM296.017 289.05C296.017 288.306 295.867 287.658 295.567 287.106C295.267 286.554 294.859 286.134 294.343 285.846C293.839 285.546 293.281 285.396 292.669 285.396C292.057 285.396 291.499 285.54 290.995 285.828C290.491 286.116 290.089 286.536 289.789 287.088C289.489 287.64 289.339 288.288 289.339 289.032C289.339 289.788 289.489 290.448 289.789 291.012C290.089 291.564 290.491 291.99 290.995 292.29C291.499 292.578 292.057 292.722 292.669 292.722C293.281 292.722 293.839 292.578 294.343 292.29C294.859 291.99 295.267 291.564 295.567 291.012C295.867 290.448 296.017 289.794 296.017 289.05ZM308.912 292.488L311.972 284.136H313.718L309.848 294H307.94L304.07 284.136H305.834L308.912 292.488ZM319.631 294.162C318.707 294.162 317.867 293.952 317.111 293.532C316.367 293.112 315.779 292.518 315.347 291.75C314.927 290.97 314.717 290.07 314.717 289.05C314.717 288.042 314.933 287.154 315.365 286.386C315.809 285.606 316.409 285.012 317.165 284.604C317.921 284.184 318.767 283.974 319.703 283.974C320.639 283.974 321.485 284.184 322.241 284.604C322.997 285.012 323.591 285.6 324.023 286.368C324.467 287.136 324.689 288.03 324.689 289.05C324.689 290.07 324.461 290.97 324.005 291.75C323.561 292.518 322.955 293.112 322.187 293.532C321.419 293.952 320.567 294.162 319.631 294.162ZM319.631 292.722C320.219 292.722 320.771 292.584 321.287 292.308C321.803 292.032 322.217 291.618 322.529 291.066C322.853 290.514 323.015 289.842 323.015 289.05C323.015 288.258 322.859 287.586 322.547 287.034C322.235 286.482 321.827 286.074 321.323 285.81C320.819 285.534 320.273 285.396 319.685 285.396C319.085 285.396 318.533 285.534 318.029 285.81C317.537 286.074 317.141 286.482 316.841 287.034C316.541 287.586 316.391 288.258 316.391 289.05C316.391 289.854 316.535 290.532 316.823 291.084C317.123 291.636 317.519 292.05 318.011 292.326C318.503 292.59 319.043 292.722 319.631 292.722ZM326.231 289.05C326.231 288.03 326.435 287.142 326.843 286.386C327.251 285.618 327.815 285.024 328.535 284.604C329.267 284.184 330.101 283.974 331.037 283.974C332.249 283.974 333.245 284.268 334.025 284.856C334.817 285.444 335.339 286.26 335.591 287.304H333.827C333.659 286.704 333.329 286.23 332.837 285.882C332.357 285.534 331.757 285.36 331.037 285.36C330.101 285.36 329.345 285.684 328.769 286.332C328.193 286.968 327.905 287.874 327.905 289.05C327.905 290.238 328.193 291.156 328.769 291.804C329.345 292.452 330.101 292.776 331.037 292.776C331.757 292.776 332.357 292.608 332.837 292.272C333.317 291.936 333.647 291.456 333.827 290.832H335.591C335.327 291.84 334.799 292.65 334.007 293.262C333.215 293.862 332.225 294.162 331.037 294.162C330.101 294.162 329.267 293.952 328.535 293.532C327.815 293.112 327.251 292.518 326.843 291.75C326.435 290.982 326.231 290.082 326.231 289.05ZM346.777 288.69C346.777 289.002 346.759 289.332 346.723 289.68H338.839C338.899 290.652 339.229 291.414 339.829 291.966C340.441 292.506 341.179 292.776 342.043 292.776C342.751 292.776 343.339 292.614 343.807 292.29C344.287 291.954 344.623 291.51 344.815 290.958H346.579C346.315 291.906 345.787 292.68 344.995 293.28C344.203 293.868 343.219 294.162 342.043 294.162C341.107 294.162 340.267 293.952 339.523 293.532C338.791 293.112 338.215 292.518 337.795 291.75C337.375 290.97 337.165 290.07 337.165 289.05C337.165 288.03 337.369 287.136 337.777 286.368C338.185 285.6 338.755 285.012 339.487 284.604C340.231 284.184 341.083 283.974 342.043 283.974C342.979 283.974 343.807 284.178 344.527 284.586C345.247 284.994 345.799 285.558 346.183 286.278C346.579 286.986 346.777 287.79 346.777 288.69ZM345.085 288.348C345.085 287.724 344.947 287.19 344.671 286.746C344.395 286.29 344.017 285.948 343.537 285.72C343.069 285.48 342.547 285.36 341.971 285.36C341.143 285.36 340.435 285.624 339.847 286.152C339.271 286.68 338.941 287.412 338.857 288.348H345.085ZM341.989 281.724L339.487 283.254V281.958L341.989 280.464L344.473 281.958V283.254L341.989 281.724ZM354.692 286.386C354.38 286.386 354.116 286.278 353.9 286.062C353.684 285.846 353.576 285.582 353.576 285.27C353.576 284.958 353.684 284.694 353.9 284.478C354.116 284.262 354.38 284.154 354.692 284.154C354.992 284.154 355.244 284.262 355.448 284.478C355.664 284.694 355.772 284.958 355.772 285.27C355.772 285.582 355.664 285.846 355.448 286.062C355.244 286.278 354.992 286.386 354.692 286.386ZM355.88 291.732L353.864 296.574H352.766L354.08 291.732H355.88ZM357.962 297.348V297.186C359.198 295.914 360.134 294.432 360.77 292.74C361.418 291.048 361.742 289.272 361.742 287.412C361.742 285.504 361.4 283.668 360.716 281.904C360.044 280.128 359.036 278.61 357.692 277.35V277.188H359.402C360.662 278.352 361.628 279.834 362.3 281.634C362.984 283.422 363.326 285.348 363.326 287.412C363.326 289.428 363.002 291.306 362.354 293.046C361.718 294.786 360.824 296.22 359.672 297.348H357.962Z" fill="#00A483"/>
<defs>
<clipPath id="clip0_1500_3945">
<rect width="232" height="159" fill="white" transform="translate(141.5 24)"/>
</clipPath>
</defs>
</svg>
